<?xml version="1.0" encoding="UTF-8"?>
<svg width="547px" height="547px" viewBox="0 0 547 547" version="1.1" xmlns="http://www.w3.org/2000/svg" xmlns:xlink="http://www.w3.org/1999/xlink">
    <!-- Generator: Sketch 47.1 (45422) - http://www.bohemiancoding.com/sketch -->
    <title>Group</title>
    <desc>Created with Sketch.</desc>
    <defs></defs>
    <g id="MINI-GAME" stroke="none" stroke-width="1" fill="none" fill-rule="evenodd">
        <g id="Group">
            <path d="M0,273.5 C0,122.45 122.45,0 273.5,0 C424.55,0 547,122.45 547,273.5 C547,424.55 424.55,547 273.5,547 C122.45,547 0,424.55 0,273.5" id="Fill-3" fill="#E0D83A"></path>
            <path d="M416.592,40.209 C443.828,82.73 459.621,133.285 459.621,187.529 C459.621,338.579 337.171,461.029 186.121,461.029 C133.661,461.029 84.658,446.248 43.029,420.639 C91.636,496.524 176.694,546.819 273.5,546.819 C424.55,546.819 547,424.369 547,273.319 C547,174.73 494.827,88.335 416.592,40.209" id="Fill-4" fill="#D5CA3C"></path>
            <path d="M37.172,297.73 C37.172,157.49 150.86,43.803 291.101,43.803 C373.073,43.803 445.959,82.656 492.387,142.939 C448.54,66.818 366.355,15.571 272.2,15.571 C131.959,15.571 18.272,129.258 18.272,269.499 C18.272,327.767 37.911,381.44 70.913,424.291 C49.452,387.032 37.172,343.816 37.172,297.73" id="Fill-5" fill="#ECE160"></path>
            <g id="Group-9" transform="translate(57.500000, 81.500000)" fill="#FFFFFF">
                <path d="M34.322523,384 L11.8455847,367.319201 C40.607112,349.0179 64.4206154,327.594539 82.6262718,303.643838 C118.635444,256.273661 129.732708,200.945852 113.86962,147.851152 C98.9214339,97.8185934 58.4809045,51.4634658 0,17.3247069 L21.4162757,0 C85.5050274,37.4101701 129.847234,88.2950128 146.27384,143.279404 C163.664803,201.485125 151.47434,262.175258 111.948714,314.169054 C91.9848303,340.432458 65.8678018,363.927057 34.322523,384" id="Fill-6"></path>
                <path d="M393.676148,384 C362.133448,363.927057 336.016399,340.433352 316.051198,314.169054 C276.52554,262.17347 264.336369,201.484231 281.724743,143.280298 C298.152664,88.2950128 342.494905,37.4101701 406.582406,0 L428,17.3247069 C369.517748,51.4634658 329.078488,97.8185934 314.128989,147.852046 C298.268491,200.945852 309.363161,256.272767 345.372362,303.643838 C363.580635,327.596328 387.395459,349.019689 416.153105,367.319201 L393.676148,384" id="Fill-8"></path>
            </g>
        </g>
    </g>
</svg>