<?xml version="1.0" encoding="UTF-8"?>
<svg width="861px" height="632px" viewBox="0 0 861 632" version="1.1" xmlns="http://www.w3.org/2000/svg" xmlns:xlink="http://www.w3.org/1999/xlink">
    <!-- Generator: Sketch 47.1 (45422) - http://www.bohemiancoding.com/sketch -->
    <title>Group 69</title>
    <desc>Created with Sketch.</desc>
    <defs>
        <linearGradient x1="50%" y1="0%" x2="50%" y2="97.11172%" id="linearGradient-1">
            <stop stop-color="#FF7474" offset="0%"></stop>
            <stop stop-color="#D50606" offset="100%"></stop>
        </linearGradient>
        <polygon id="path-2" points="178.286168 0.409658491 178.286168 50.137881 0.00473001706 50.137881 0.00473001706 0.409658491"></polygon>
        <polygon id="path-4" points="178.286168 50.1357657 178.286168 0.408600871 0 0.408600871 0 50.1357657"></polygon>
        <path d="M0.641708288,0.0787960585 C0.641707139,0.0614181344 0.647157035,0.0390744158 0.661173379,0.0103459119 C0.676940102,0.05882015 0.692706826,0.0911363087 0.708473549,0.139610547 C0.708473549,0.139610547 0.641712312,0.139610547 0.641708288,0.0787960585 L0.641708288,0.0103459119 L16.4084318,0.0103459119 L16.4084318,16.1684253 L0.641708288,16.1684253 L0.641708288,0.0787960585 L0.641708288,0.0787960585 Z" id="path-6"></path>
        <path d="M0.0286522184,1.19569787 C0.202086177,0.98564284 0.328219966,0.856378205 0.328219966,0.856378205 C0.186319454,0.937168602 0.107485836,1.05027516 0.0286522184,1.19569787 Z" id="path-8"></path>
        <linearGradient x1="50%" y1="0%" x2="50%" y2="100%" id="linearGradient-10">
            <stop stop-color="#FFFE00" offset="0%"></stop>
            <stop stop-color="#FF2D07" offset="100%"></stop>
        </linearGradient>
        <linearGradient x1="50%" y1="29.7087447%" x2="50%" y2="100%" id="linearGradient-11">
            <stop stop-color="#FFEC52" offset="0%"></stop>
            <stop stop-color="#FFDE4D" offset="4.79320851%"></stop>
            <stop stop-color="#FF1700" offset="100%"></stop>
        </linearGradient>
        <path d="M0.641708288,0.118194088 C0.641707139,0.0921272016 0.647157035,0.0586116237 0.661173379,0.0155188679 C0.676940102,0.088230225 0.692706826,0.136704463 0.708473549,0.20941582 C0.708473549,0.20941582 0.641712312,0.20941582 0.641708288,0.118194088 L0.641708288,0.0155188679 L16.4084318,0.0155188679 L16.4084318,24.2526379 L0.641708288,24.2526379 L0.641708288,0.118194088 L0.641708288,0.118194088 Z" id="path-12"></path>
        <path d="M0.0286522184,0.879178157 C0.202086177,0.56409561 0.328219966,0.370198657 0.328219966,0.370198657 C0.186319454,0.491384253 0.107485836,0.661044086 0.0286522184,0.879178157 Z" id="path-14"></path>
        <path d="M0.641708288,0.0787960585 C0.641707139,0.0614181344 0.647157035,0.0390744158 0.661173379,0.0103459119 C0.676940102,0.05882015 0.692706826,0.0911363087 0.708473549,0.139610547 C0.708473549,0.139610547 0.641712312,0.139610547 0.641708288,0.0787960585 L0.641708288,0.0103459119 L16.4084318,0.0103459119 L16.4084318,16.1684253 L0.641708288,16.1684253 L0.641708288,0.0787960585 L0.641708288,0.0787960585 Z" id="path-16"></path>
        <path d="M0.0286522184,1.19569787 C0.202086177,0.98564284 0.328219966,0.856378205 0.328219966,0.856378205 C0.186319454,0.937168602 0.107485836,1.05027516 0.0286522184,1.19569787 Z" id="path-18"></path>
        <linearGradient x1="50%" y1="0%" x2="50%" y2="100%" id="linearGradient-20">
            <stop stop-color="#FFFFFF" offset="0%"></stop>
            <stop stop-color="#000000" offset="100%"></stop>
        </linearGradient>
        <path d="M113.880439,298.817794 L101.393171,286.339502 C103.978659,283.343772 107.184522,279.435587 110.695943,274.723132 C118.346995,264.453381 127.456034,250.363701 134.750957,233.53452 C145.197613,209.399288 148.329401,183.469751 149.302343,168.76726 C149.31089,168.633452 149.311602,168.599288 149.308041,168.46548 C149.278126,167.427046 149.263169,166.38363 149.263169,165.336655 C149.261744,148.067616 153.318041,129.700356 161.288183,111.755872 C169.256188,93.8120996 181.131629,76.2953737 196.72362,60.7145907 C212.885416,44.5622776 229.737387,31.0597865 246.786654,21.6419929 C263.840906,12.2192171 281.049005,6.88967972 298.043428,6.88967972 C298.043428,6.88967972 298.043428,6.88967972 298.050551,6.88967972 C309.07627,6.89252669 320.030764,9.11957295 330.928277,13.9907473 C341.818668,18.8640569 352.652078,26.397153 363.328792,37.0676157 C374.012629,47.73879 381.548295,58.5679715 386.427247,69.4512456 C391.299076,80.3380783 393.528437,91.2868327 393.528437,102.303203 C393.53556,119.285409 388.200764,136.485409 378.770497,153.528826 C369.347353,170.566548 355.828739,187.406406 339.667655,203.555872 C324.076377,219.136655 306.547762,231.00427 288.591794,238.966548 C270.635826,246.928826 252.259627,250.982918 234.97959,250.982918 C234.976741,250.982918 234.974604,250.982918 234.971043,250.982918 C233.924739,250.982918 232.881996,250.967972 231.84424,250.938078 C231.79367,250.936655 231.757345,250.935943 231.724581,250.935943 C231.670449,250.935943 231.62629,250.938078 231.542956,250.943772 C216.8306,251.915302 190.878849,255.043416 166.723407,265.483986 C148.759604,273.259786 133.914057,283.097509 123.500877,291.031317 C119.672503,293.948754 116.443135,296.609964 113.880439,298.817794 M154.263917,206.777936 C152.821599,206.780071 151.391389,207.212811 150.167734,208.086121 C149.558043,208.523132 149.003908,209.07331 148.550913,209.72242 C148.098631,210.370819 147.748913,211.117438 147.536661,211.918861 C145.466845,219.696085 142.81298,227.711744 139.414096,235.552313 C133.58998,249.002847 124.947469,262.845552 117.512943,273.58363 C116.708094,274.735231 116.284302,276.100356 116.290712,277.401423 C116.290712,278.336655 116.49513,279.229893 116.844847,280.026335 C117.371204,281.222064 118.208817,282.213523 119.260107,282.935943 C120.308547,283.655516 121.603428,284.11032 123.007996,284.111032 C123.017968,284.111032 123.028652,284.111032 123.038623,284.111032 C124.350599,284.111032 125.725252,283.675445 126.879819,282.853381 C137.525194,275.340214 151.271018,266.63274 164.704162,260.824199 C172.550371,257.42847 180.571796,254.775801 188.354615,252.707473 C189.157327,252.495374 189.904483,252.146619 190.552636,251.69395 C191.529139,251.014235 192.27487,250.111032 192.763478,249.125979 C193.25351,248.13879 193.498526,247.067616 193.499238,245.985053 C193.499238,244.844128 193.222171,243.678292 192.628861,242.614235 C192.040538,241.551601 191.119591,240.607117 189.967874,239.967972 C183.823956,236.532384 178.150838,232.28968 173.060346,227.202847 C167.969854,222.115302 163.723385,216.446975 160.286039,210.307473 C159.645721,209.156584 158.700558,208.236299 157.63716,207.647687 C156.572337,207.054804 155.405663,206.777936 154.263917,206.777936 M295.158792,13.0128114 C295.15167,13.0128114 295.144547,13.0128114 295.137425,13.0128114 C278.506252,13.0142349 261.967673,18.2199288 245.924112,27.0868327 C229.871291,35.9594306 214.26648,48.5032028 199.383895,63.372242 C185.172968,77.5736655 174.233432,93.5160142 166.739076,109.948754 C159.245433,126.382918 155.19341,143.311032 154.796684,159.499644 L154.795972,159.535943 C154.788849,160.090391 154.778877,160.690391 154.761783,161.382918 L154.761071,161.440569 C154.758934,161.664057 154.758222,161.886833 154.758222,162.108185 C154.758222,173.602847 156.63003,184.690391 160.478348,194.884698 C164.325242,205.078292 170.157904,214.375801 178.02833,222.238434 C185.895908,230.102491 195.200817,235.930961 205.401032,239.774377 C215.603384,243.619929 226.698904,245.48968 238.201123,245.48968 C238.463233,245.48968 238.725343,245.488968 238.988165,245.486833 L239.042297,245.486121 C239.6527,245.471174 240.191165,245.461922 240.691169,245.455516 L240.723933,245.454804 C256.939147,245.070463 273.890835,241.027758 290.351066,233.539502 C306.811297,226.050534 322.780071,215.111744 337.010941,200.898221 C351.889964,186.025623 364.439911,170.432028 373.321741,154.390747 C382.189325,138.355872 387.403037,121.831317 387.403037,105.212811 C387.403037,94.4455516 385.202167,83.66121 380.458544,73.0754448 C375.71492,62.4868327 368.442789,52.1032028 358.364369,42.0320285 L356.099396,44.2967972 L358.364369,42.0320285 C348.28595,31.9601423 337.894139,24.6939502 327.295773,19.9537367 C316.711652,15.2142349 305.928099,13.0128114 295.158792,13.0128114" id="path-21"></path>
        <filter x="-2.4%" y="-1.7%" width="104.8%" height="104.8%" filterUnits="objectBoundingBox" id="filter-22">
            <feOffset dx="0" dy="2" in="SourceAlpha" result="shadowOffsetOuter1"></feOffset>
            <feGaussianBlur stdDeviation="2" in="shadowOffsetOuter1" result="shadowBlurOuter1"></feGaussianBlur>
            <feColorMatrix values="0 0 0 0 0   0 0 0 0 0   0 0 0 0 0  0 0 0 0.5 0" type="matrix" in="shadowBlurOuter1"></feColorMatrix>
        </filter>
        <filter x="-2.2%" y="-1.6%" width="104.4%" height="104.4%" filterUnits="objectBoundingBox" id="filter-23">
            <feOffset dx="0" dy="2" in="SourceAlpha" result="shadowOffsetOuter1"></feOffset>
            <feGaussianBlur stdDeviation="2" in="shadowOffsetOuter1" result="shadowBlurOuter1"></feGaussianBlur>
            <feColorMatrix values="0 0 0 0 0   0 0 0 0 0   0 0 0 0 0  0 0 0 0.5 0" type="matrix" in="shadowBlurOuter1" result="shadowMatrixOuter1"></feColorMatrix>
            <feMerge>
                <feMergeNode in="shadowMatrixOuter1"></feMergeNode>
                <feMergeNode in="SourceGraphic"></feMergeNode>
            </feMerge>
        </filter>
        <path d="M93.3617744,280.96726 C91.7356945,280.96726 90.1096146,281.581495 88.8610302,282.8121 C56.8002611,314.407829 20.0948721,349.553737 14.4317265,353.226335 C8.19022913,355.622064 3.55558082,359.362989 3.03777087,359.790036 C1.53989698,361.025623 0.683053286,362.87331 0.707982238,364.814235 C0.859692718,376.414235 10.3170249,385.643416 12.5143339,387.63274 C14.5065133,389.829181 23.7423339,399.276157 35.3478295,399.430605 L35.4333002,399.431317 C37.3464192,399.431317 39.1612469,398.577224 40.3799165,397.100356 C40.8065577,396.582918 44.544476,391.953025 46.944778,385.716014 C50.6171687,380.060498 85.7897833,343.379359 117.409666,311.340925 C119.882618,308.834164 119.869085,304.802847 117.378327,302.313879 L97.8945702,282.843416 C96.6431368,281.592883 95.0028117,280.96726 93.3617744,280.96726 M112.844819,306.842705 C112.844819,306.842705 43.1933268,377.417082 41.0836252,383.095374 C38.9988526,388.703203 35.4333002,393.025623 35.4333002,393.025623 C25.5635719,392.894662 17.0549645,383.095374 17.0549645,383.095374 C17.0549645,383.095374 7.24649023,374.593594 7.11757194,364.730249 C7.11757194,364.730249 11.442389,361.164413 17.05354,359.084698 C22.7359165,356.975801 93.3617744,287.372954 93.3617744,287.372954 L112.844819,306.842705 Z" id="path-24"></path>
        <filter x="-5.9%" y="-4.2%" width="111.8%" height="111.8%" filterUnits="objectBoundingBox" id="filter-25">
            <feOffset dx="0" dy="2" in="SourceAlpha" result="shadowOffsetOuter1"></feOffset>
            <feGaussianBlur stdDeviation="2" in="shadowOffsetOuter1" result="shadowBlurOuter1"></feGaussianBlur>
            <feColorMatrix values="0 0 0 0 0   0 0 0 0 0   0 0 0 0 0  0 0 0 0.5 0" type="matrix" in="shadowBlurOuter1"></feColorMatrix>
        </filter>
        <path d="M92.6958289,0 C91.0690205,0 89.4422121,0.614952096 88.1930684,1.84699401 C56.1179367,33.4796168 19.3961044,68.6665629 13.7304217,72.3434491 C7.4861283,74.741976 2.84940375,78.4872695 2.33136184,78.9148144 C0.832816927,80.1518443 -0.0244106183,82.0016886 0.000529501454,83.9448802 C0.152307945,95.5584251 9.61387681,104.798383 11.8121702,106.79003 C13.8052421,108.989036 23.0452002,118.447042 34.6558948,118.601671 L34.7414038,118.602383 C36.6553798,118.602383 38.4710205,117.747293 39.6902361,116.268701 C40.1170684,115.750659 43.8566612,111.115359 46.2580385,104.871066 C49.9320744,99.2089461 85.1204457,62.484976 116.754494,30.4091317 C119.228553,27.8994431 119.215015,23.8634192 116.72314,21.3715449 L97.2306552,1.87834731 C95.9786612,0.626353293 94.3376014,0 92.6958289,0 M112.187601,25.9056587 C112.187601,25.9056587 42.5049067,96.5624431 40.39426,102.247365 C38.3085535,107.861743 34.7414038,112.18921 34.7414038,112.18921 C24.8672541,112.058096 16.3548349,102.247365 16.3548349,102.247365 C16.3548349,102.247365 6.54196663,93.7356587 6.41299058,83.8607964 C6.41299058,83.8607964 10.7397451,80.2907964 16.3534097,78.2086527 C22.0383319,76.0972934 92.6958289,6.41317365 92.6958289,6.41317365 L112.187601,25.9056587 Z" id="path-26"></path>
        <filter x="-5.9%" y="-4.2%" width="111.8%" height="111.8%" filterUnits="objectBoundingBox" id="filter-27">
            <feOffset dx="0" dy="2" in="SourceAlpha" result="shadowOffsetOuter1"></feOffset>
            <feGaussianBlur stdDeviation="2" in="shadowOffsetOuter1" result="shadowBlurOuter1"></feGaussianBlur>
            <feColorMatrix values="0 0 0 0 0   0 0 0 0 0   0 0 0 0 0  0 0 0 0.5 0" type="matrix" in="shadowBlurOuter1"></feColorMatrix>
        </filter>
    </defs>
    <g id="MINI-GAME" stroke="none" stroke-width="1" fill="none" fill-rule="evenodd">
        <g id="Group-69" transform="translate(3.000000, 2.000000)">
            <g id="Group-68" transform="translate(322.000000, 0.000000)">
                <path d="M86.7764239,482.673 C105.531096,525.749102 140.584006,560.551053 184.462121,579.847575 L174.972332,594.057906 C167.92645,604.607394 171.083207,618.820001 181.985385,625.637947 C192.890087,632.455893 207.575323,629.401258 214.621206,618.849326 L231.370518,593.768337 C241.923985,595.507084 252.770862,596.412663 263.836316,596.412663 C278.980736,596.412663 293.715732,594.7164 307.849467,591.509507 L326.106513,618.850792 C333.152396,629.40028 347.837631,632.454916 358.742334,625.63697 C369.647037,618.819024 372.801269,604.608861 365.755386,594.056929 L353.12761,575.147308 C389.534888,556.612769 419.040754,527.097367 436.941873,491.152278 C484.462144,460.07194 549.244291,395.939908 532.740528,404.138802 L493.926878,403.242823 C516.652138,371.632532 535.388819,341.862444 535.388819,341.862444 L484.761894,352.326147 C490.503147,322.172605 493.986622,297.955451 493.986622,297.955451 L440.087486,336.653983 C410.549358,270.802409 342.751323,224.744194 263.836316,224.744194 C186.7274,224.744194 120.232421,268.718309 89.6730181,332.164059 L42.027427,297.955451 C42.027427,297.955451 45.5109018,322.172605 51.2521548,352.326147 L0.625229868,341.862444 C0.625229868,341.862444 19.3619102,371.632532 42.0871711,403.242823 L3.27352106,404.138802 C-11.8424161,396.629366 41.2314497,449.797499 86.7764239,482.673 Z" id="Combined-Shape" fill="url(#linearGradient-1)"></path>
                <path d="M180.733842,317.612903 C157.742773,317.612903 125.592493,316.987172 99.4650057,314.457308 C107.879145,304.1431 114.118088,296.610241 118.181834,291.858732 C122.106749,287.269548 127.850798,280.791368 135.413981,272.424191 C298.367731,288.148606 354.619484,249.480758 355.64162,249.044574 C356.108321,248.845416 367.064566,250.99446 377.419283,261.663187 C382.183371,266.571749 388.866107,269.188318 395.723308,276.397412 C402.580509,283.606506 308.304869,317.612903 180.733842,317.612903 Z" id="Stroke-7" stroke="#D6D4D4" stroke-width="0.5" fill="#F1EEEE"></path>
                <g id="Page-1" transform="translate(175.686348, 505.112482)">
                    <g id="Group-3">
                        <mask id="mask-3" fill="white">
                            <use xlink:href="#path-2"></use>
                        </mask>
                        <g id="Clip-2"></g>
                        <path d="M178.290898,25.2742985 C178.290898,39.0022028 165.839128,50.1389386 150.490223,50.1389386 L27.7935803,50.1389386 C12.4446749,50.1389386 0.00473001706,39.0022028 0.00473001706,25.2742985 C0.00473001706,11.5463943 12.4446749,0.409658491 27.7935803,0.409658491 L150.490223,0.409658491 C165.839128,0.409658491 178.290898,11.5463943 178.290898,25.2742985" id="Fill-1" fill="#F2F2F2" mask="url(#mask-3)"></path>
                    </g>
                    <g id="Group-6">
                        <mask id="mask-5" fill="white">
                            <use xlink:href="#path-4"></use>
                        </mask>
                        <g id="Clip-5"></g>
                        <path d="M165.911261,27.0690792 L165.911261,45.9581678 C167.353916,45.1014958 168.690146,44.1179094 169.919951,43.0391373 L169.919951,27.0690792 L178.185655,27.0690792 C178.232956,26.4768122 178.292081,25.8845451 178.292081,25.2711257 C178.292081,24.6682824 178.232956,24.0760154 178.185655,23.4837483 L169.919951,23.4837483 L169.919951,7.51369028 C168.690146,6.43491814 167.353916,5.45133179 165.911261,4.5946598 L165.911261,23.4837483 L143.668356,23.4837483 L143.668356,0.406485631 L139.647841,0.406485631 L139.647841,23.4837483 L117.404936,23.4837483 L117.404936,0.406485631 L113.396247,0.406485631 L113.396247,23.4837483 L91.1533414,23.4837483 L91.1533414,0.406485631 L87.1446519,0.406485631 L87.1446519,23.4837483 L64.8899216,23.4837483 L64.8899216,0.406485631 L60.8812321,0.406485631 L60.8812321,23.4837483 L38.6383269,23.4837483 L38.6383269,0.406485631 L34.6296374,0.406485631 L34.6296374,23.4837483 L12.3749071,23.4837483 L12.3749071,4.5946598 C10.944077,5.45133179 9.59602212,6.43491814 8.36621768,7.51369028 L8.36621768,23.4837483 L0.100512863,23.4837483 C0.053212692,24.0760154 -0.00591252133,24.6682824 -0.00591252133,25.2711257 C-0.00591252133,25.8845451 0.053212692,26.4768122 0.100512863,27.0690792 L8.36621768,27.0690792 L8.36621768,43.0391373 C9.59602212,44.1179094 10.944077,45.1014958 12.3749071,45.9581678 L12.3749071,27.0690792 L34.6296374,27.0690792 L34.6296374,50.1357657 L38.6383269,50.1357657 L38.6383269,27.0690792 L60.8812321,27.0690792 L60.8812321,50.1357657 L64.8899216,50.1357657 L64.8899216,27.0690792 L87.1446519,27.0690792 L87.1446519,50.1357657 L91.1533414,50.1357657 L91.1533414,27.0690792 L113.396247,27.0690792 L113.396247,50.1357657 L117.404936,50.1357657 L117.404936,27.0690792 L139.647841,27.0690792 L139.647841,50.1357657 L143.668356,50.1357657 L143.668356,27.0690792 L165.911261,27.0690792 Z" id="Fill-4" fill="#CCCCCC" mask="url(#mask-5)"></path>
                    </g>
                </g>
                <g id="Page-1" transform="translate(270.286689, 369.747823)">
                    <g id="Group-3" transform="translate(17.173038, 0.340066)" fill="#0B0B0B">
                        <path d="M107.295334,11.611438 L107.295334,11.611438 C110.998262,20.9184917 106.281759,31.4021473 96.7676678,35.0244949 L25.6282112,62.1260007 C16.1006054,65.7483483 5.38373812,61.1344822 1.68081048,51.8274285 L1.68081048,51.8274285 C-2.02211717,42.5203748 2.69438556,32.0367192 12.208477,28.4011513 L83.361448,1.31286575 C92.8755395,-2.30948186 103.592407,2.30438425 107.295334,11.611438" id="Fill-1"></path>
                    </g>
                    <g id="Group-6" transform="translate(0.000000, 63.698193)"></g>
                </g>
                <g id="Page-1" transform="translate(185.129010, 398.187228) scale(1, -1) translate(-185.129010, -398.187228) translate(121.629010, 359.687228)">
                    <g id="Group-3" transform="translate(17.173038, 0.340066)" fill="#0B0B0B">
                        <path d="M107.295334,11.611438 L107.295334,11.611438 C110.998262,20.9184917 106.281759,31.4021473 96.7676678,35.0244949 L25.6282112,62.1260007 C16.1006054,65.7483483 5.38373812,61.1344822 1.68081048,51.8274285 L1.68081048,51.8274285 C-2.02211717,42.5203748 2.69438556,32.0367192 12.208477,28.4011513 L83.361448,1.31286575 C92.8755395,-2.30948186 103.592407,2.30438425 107.295334,11.611438" id="Fill-1"></path>
                    </g>
                    <g id="Group-6" transform="translate(0.000000, 63.698193)"></g>
                </g>
                <g id="Group-24" transform="translate(334.316041, 393.285922) scale(-1, 1) translate(-334.316041, -393.285922) translate(289.316041, 317.285922)">
                    <g id="Page-1" transform="translate(-0.000000, 28.269231)">
                        <path d="M28.3487747,48.4207595 C8.02546809,48.7600792 11.5572142,30.7599788 13.7487887,26.9628302 L13.7487887,26.9628302 C11.4626138,29.6450713 -3.94147509,52.1532759 2.45981468,74.8553773 L2.45981468,74.8553773 C8.84533771,97.5574788 47.5211106,106.557529 47.5211106,106.557529 L47.5211106,106.557529 C39.511615,86.7638818 54.8053369,77.1498246 60.9385923,69.0223107 L60.9385923,69.0223107 C96.6975213,21.1459216 35.9010353,0.495896196 35.9010353,0.495896196 L35.9010353,0.495896196 C51.5258584,11.2733351 56.9969114,47.9360171 28.3487747,48.4207595" id="Fill-1"></path>
                        <path d="M64.1392372,75.404752 C46.527807,92.6615808 52.0776937,101.386944 53.4493986,105.45878 L53.4493986,105.45878 C53.6701328,105.03867 55.9563077,103.067384 72.2117997,93.8572786 L72.2117997,93.8572786 C84.9197788,86.6830914 89.0664271,77.7638316 89.1610275,69.296998 L89.1610275,69.296998 L89.1610275,68.6345168 C88.9718268,53.9952969 76.9891169,40.8910946 76.9891169,40.8910946 L76.9891169,40.8910946 C80.1582283,45.7708345 73.6465715,66.1461726 64.1392372,75.404752" id="Fill-3"></path>
                        <g id="Group-7" transform="translate(52.788225, 105.448434)">
                            <mask id="mask-7" fill="white">
                                <use xlink:href="#path-6"></use>
                            </mask>
                            <g id="Clip-6"></g>
                            <path d="M0.708473549,0.139610547 C0.692706826,0.0911363087 0.676940102,0.05882015 0.661173379,0.0103459119 L0.661173379,0.0103459119 C0.598106485,0.139610547 0.708473549,0.139610547 0.708473549,0.139610547" id="Fill-5" mask="url(#mask-7)"></path>
                        </g>
                        <g id="Group-10" transform="translate(13.720137, 25.767132)">
                            <mask id="mask-9" fill="white">
                                <use xlink:href="#path-8"></use>
                            </mask>
                            <g id="Clip-9"></g>
                            <path d="M0.0286522184,1.19569787 C0.202086177,0.98564284 0.328219966,0.856378205 0.328219966,0.856378205 L0.328219966,0.856378205 C0.186319454,0.937168602 0.107485836,1.05027516 0.0286522184,1.19569787" id="Fill-8" mask="url(#mask-9)"></path>
                        </g>
                    </g>
                    <path d="M39.8342779,0 C30.5115214,3.52955799 23.8241731,11.5900834 24.0712426,19.1581124 L24.0712426,19.1581124 C24.3347835,29.3692058 33.65754,38.857971 30.0997389,49.479478 L30.0997389,49.479478 C28.0572975,55.3894356 13.3319542,70.7224922 6.84226156,80.5724214 L6.84226156,80.5724214 C0.270212367,90.5865162 -0.783950911,99.8290331 3.4162309,109.219299 L3.4162309,109.219299 C8.7694038,121.170547 22.671182,128.52516 40.2131178,132.202467 L40.2131178,132.202467 L49.9970708,132.202467 C61.1975556,129.132573 78.1959385,121.58096 81.5231413,104.310751 L81.5231413,104.310751 C84.8174016,87.1554575 70.2567713,76.730949 62.7129153,65.8796103 L62.7129153,65.8796103 C56.6350052,57.1460063 63.734136,48.970565 62.202305,41.402536 L62.202305,41.402536 C61.1810843,36.5104045 57.9527093,32.0122701 53.0607328,29.9602015 L53.0607328,29.9602015 C56.2232226,34.7702503 55.5973132,42.4203621 49.9970708,46.3110841 L49.9970708,46.3110841 C53.5548718,41.8129497 52.5665938,37.6759795 50.2770829,33.9986725 L50.2770829,33.9986725 C46.2086715,27.2678875 35.2552562,22.5235049 32.4716063,15.0539752 L32.4716063,15.0539752 C30.4456362,9.70218033 32.784561,4.12055374 39.8342779,0 Z" id="Fill-11" fill="url(#linearGradient-10)"></path>
                    <path d="M35.6856879,70.4311004 C30.5685172,82.7916641 15.4936093,89.7739673 14.4640284,105.720038 L14.4640284,105.720038 C13.6342169,118.536653 27.7102778,129.340352 39.8808457,132.202467 L39.8808457,132.202467 L44.3526074,132.202467 C51.252336,129.670596 58.4594021,125.975008 62.65456,121.839094 L62.65456,121.839094 C70.5377687,114.023318 71.1217101,101.316784 60.1036581,95.7969901 L60.1036581,95.7969901 C65.0978937,99.0365272 64.1451472,106.301897 58.9357753,107.685777 L58.9357753,107.685777 C54.2027767,108.959575 51.8362774,104.572047 53.8032378,100.98654 L53.8032378,100.98654 C56.1697371,96.7719964 60.5185638,92.8562453 60.5185638,87.9969397 L60.5185638,87.9969397 C60.9027358,83.7666704 57.7371588,79.2061571 54.2027767,76.9416263 L54.2027767,76.9416263 C56.0007015,84.4114327 50.2688557,89.9312264 45.1516851,92.8562453 L45.1516851,92.8562453 L44.7367794,92.8562453 C48.3018953,90.5917145 50.6837615,86.9433039 51.8362774,83.4364264 L51.8362774,83.4364264 C55.7240977,71.5633657 45.9353959,57.1112562 34.1028993,52.8809869 L34.1028993,52.8809869 C39.8808457,57.4257744 37.6526483,65.2415507 35.6856879,70.4311004" id="Fill-13" fill="url(#linearGradient-11)"></path>
                </g>
                <g id="Group-24" transform="translate(253.230034, 120.000000) scale(-1, 1) translate(-253.230034, -120.000000) translate(208.230034, 0.000000)">
                    <g id="Page-1" transform="translate(-0.000000, 55.624093)">
                        <path d="M28.3487747,72.6311393 C8.02546809,73.1401188 11.5572142,46.1399682 13.7487887,40.4442452 L13.7487887,40.4442452 C11.4626138,44.467607 -3.94147509,78.2299138 2.45981468,112.283066 L2.45981468,112.283066 C8.84533771,146.336218 47.5211106,159.836293 47.5211106,159.836293 L47.5211106,159.836293 C39.511615,130.145823 54.8053369,115.724737 60.9385923,103.533466 L60.9385923,103.533466 C96.6975213,31.7188824 35.9010353,0.743844294 35.9010353,0.743844294 L35.9010353,0.743844294 C51.5258584,16.9100027 56.9969114,71.9040257 28.3487747,72.6311393" id="Fill-1"></path>
                        <path d="M64.1392372,113.107128 C46.527807,138.992371 52.0776937,152.080415 53.4493986,158.188169 L53.4493986,158.188169 C53.6701328,157.558004 55.9563077,154.601076 72.2117997,140.785918 L72.2117997,140.785918 C84.9197788,130.024637 89.0664271,116.645747 89.1610275,103.945497 L89.1610275,103.945497 L89.1610275,102.951775 C88.9718268,80.9929453 76.9891169,61.3366418 76.9891169,61.3366418 L76.9891169,61.3366418 C80.1582283,68.6562518 73.6465715,99.2192588 64.1392372,113.107128" id="Fill-3"></path>
                        <g id="Group-7" transform="translate(52.788225, 158.172651)">
                            <mask id="mask-13" fill="white">
                                <use xlink:href="#path-12"></use>
                            </mask>
                            <g id="Clip-6"></g>
                            <path d="M0.708473549,0.20941582 C0.692706826,0.136704463 0.676940102,0.088230225 0.661173379,0.0155188679 L0.661173379,0.0155188679 C0.598106485,0.20941582 0.708473549,0.20941582 0.708473549,0.20941582" id="Fill-5" mask="url(#mask-13)"></path>
                        </g>
                        <g id="Group-10" transform="translate(13.720137, 39.565067)">
                            <mask id="mask-15" fill="white">
                                <use xlink:href="#path-14"></use>
                            </mask>
                            <g id="Clip-9"></g>
                            <path d="M0.0286522184,0.879178157 C0.202086177,0.56409561 0.328219966,0.370198657 0.328219966,0.370198657 L0.328219966,0.370198657 C0.186319454,0.491384253 0.107485836,0.661044086 0.0286522184,0.879178157" id="Fill-8" mask="url(#mask-15)"></path>
                        </g>
                    </g>
                    <path d="M39.8342779,0 C30.5115214,5.29433698 23.8241731,17.3851252 24.0712426,28.7371686 L24.0712426,28.7371686 C24.3347835,44.0538087 33.65754,58.2869565 30.0997389,74.219217 L30.0997389,74.219217 C28.0572975,83.0841534 13.3319542,106.083738 6.84226156,120.858632 L6.84226156,120.858632 C0.270212367,135.879774 -0.783950911,149.74355 3.4162309,163.828949 L3.4162309,163.828949 C8.7694038,181.75582 22.671182,192.787741 40.2131178,198.303701 L40.2131178,198.303701 L49.9970708,198.303701 C61.1975556,193.698859 78.1959385,182.37144 81.5231413,156.466126 L81.5231413,156.466126 C84.8174016,130.733186 70.2567713,115.096424 62.7129153,98.8194154 L62.7129153,98.8194154 C56.6350052,85.7190095 63.734136,73.4558475 62.202305,62.103804 L62.202305,62.103804 C61.1810843,54.7656067 57.9527093,48.0184052 53.0607328,44.9403023 L53.0607328,44.9403023 C56.2232226,52.1553755 55.5973132,63.6305431 49.9970708,69.4666262 L49.9970708,69.4666262 C53.5548718,62.7194246 52.5665938,56.5139692 50.2770829,50.9980088 L50.2770829,50.9980088 C46.2086715,40.9018313 35.2552562,33.7852574 32.4716063,22.5809629 L32.4716063,22.5809629 C30.4456362,14.5532705 32.784561,6.18083062 39.8342779,0 Z" id="Fill-11" fill="url(#linearGradient-10)"></path>
                    <path d="M35.6856879,108.571669 C30.5685172,129.172609 15.4936093,140.809781 14.4640284,167.386566 L14.4640284,167.386566 C13.6342169,188.747591 27.7102778,206.753756 39.8808457,211.523948 L39.8808457,211.523948 L44.3526074,211.523948 C51.252336,207.304162 58.4594021,201.144848 62.65456,194.251659 L62.65456,194.251659 C70.5377687,181.225365 71.1217101,160.047809 60.1036581,150.848152 L60.1036581,150.848152 C65.0978937,156.247381 64.1451472,168.35633 58.9357753,170.662797 L58.9357753,170.662797 C54.2027767,172.785794 51.8362774,165.473247 53.8032378,159.497402 L53.8032378,159.497402 C56.1697371,152.473163 60.5185638,145.946911 60.5185638,137.848068 L60.5185638,137.848068 C60.9027358,130.79762 57.7371588,123.196764 54.2027767,119.422546 L54.2027767,119.422546 C56.0007015,131.872223 50.2688557,141.07188 45.1516851,145.946911 L45.1516851,145.946911 L44.7367794,145.946911 C48.3018953,142.172693 50.6837615,136.092009 51.8362774,130.247213 L51.8362774,130.247213 C55.7240977,110.458778 45.9353959,86.3719292 34.1028993,79.3214804 L34.1028993,79.3214804 C39.8808457,86.8961261 37.6526483,99.92242 35.6856879,108.571669" id="Fill-13" fill="url(#linearGradient-11)" transform="translate(41.457679, 145.422714) scale(-1, 1) translate(-41.457679, -145.422714) "></path>
                </g>
                <g id="Group-24" transform="translate(147.743003, 317.285922)">
                    <g id="Page-1" transform="translate(-0.000000, 28.269231)">
                        <path d="M28.3487747,48.4207595 C8.02546809,48.7600792 11.5572142,30.7599788 13.7487887,26.9628302 L13.7487887,26.9628302 C11.4626138,29.6450713 -3.94147509,52.1532759 2.45981468,74.8553773 L2.45981468,74.8553773 C8.84533771,97.5574788 47.5211106,106.557529 47.5211106,106.557529 L47.5211106,106.557529 C39.511615,86.7638818 54.8053369,77.1498246 60.9385923,69.0223107 L60.9385923,69.0223107 C96.6975213,21.1459216 35.9010353,0.495896196 35.9010353,0.495896196 L35.9010353,0.495896196 C51.5258584,11.2733351 56.9969114,47.9360171 28.3487747,48.4207595" id="Fill-1"></path>
                        <path d="M64.1392372,75.404752 C46.527807,92.6615808 52.0776937,101.386944 53.4493986,105.45878 L53.4493986,105.45878 C53.6701328,105.03867 55.9563077,103.067384 72.2117997,93.8572786 L72.2117997,93.8572786 C84.9197788,86.6830914 89.0664271,77.7638316 89.1610275,69.296998 L89.1610275,69.296998 L89.1610275,68.6345168 C88.9718268,53.9952969 76.9891169,40.8910946 76.9891169,40.8910946 L76.9891169,40.8910946 C80.1582283,45.7708345 73.6465715,66.1461726 64.1392372,75.404752" id="Fill-3"></path>
                        <g id="Group-7" transform="translate(52.788225, 105.448434)">
                            <mask id="mask-17" fill="white">
                                <use xlink:href="#path-16"></use>
                            </mask>
                            <g id="Clip-6"></g>
                            <path d="M0.708473549,0.139610547 C0.692706826,0.0911363087 0.676940102,0.05882015 0.661173379,0.0103459119 L0.661173379,0.0103459119 C0.598106485,0.139610547 0.708473549,0.139610547 0.708473549,0.139610547" id="Fill-5" mask="url(#mask-17)"></path>
                        </g>
                        <g id="Group-10" transform="translate(13.720137, 25.767132)">
                            <mask id="mask-19" fill="white">
                                <use xlink:href="#path-18"></use>
                            </mask>
                            <g id="Clip-9"></g>
                            <path d="M0.0286522184,1.19569787 C0.202086177,0.98564284 0.328219966,0.856378205 0.328219966,0.856378205 L0.328219966,0.856378205 C0.186319454,0.937168602 0.107485836,1.05027516 0.0286522184,1.19569787" id="Fill-8" mask="url(#mask-19)"></path>
                        </g>
                    </g>
                    <path d="M39.8342779,0 C30.5115214,3.52955799 23.8241731,11.5900834 24.0712426,19.1581124 L24.0712426,19.1581124 C24.3347835,29.3692058 33.65754,38.857971 30.0997389,49.479478 L30.0997389,49.479478 C28.0572975,55.3894356 13.3319542,70.7224922 6.84226156,80.5724214 L6.84226156,80.5724214 C0.270212367,90.5865162 -0.783950911,99.8290331 3.4162309,109.219299 L3.4162309,109.219299 C8.7694038,121.170547 22.671182,128.52516 40.2131178,132.202467 L40.2131178,132.202467 L49.9970708,132.202467 C61.1975556,129.132573 78.1959385,121.58096 81.5231413,104.310751 L81.5231413,104.310751 C84.8174016,87.1554575 70.2567713,76.730949 62.7129153,65.8796103 L62.7129153,65.8796103 C56.6350052,57.1460063 63.734136,48.970565 62.202305,41.402536 L62.202305,41.402536 C61.1810843,36.5104045 57.9527093,32.0122701 53.0607328,29.9602015 L53.0607328,29.9602015 C56.2232226,34.7702503 55.5973132,42.4203621 49.9970708,46.3110841 L49.9970708,46.3110841 C53.5548718,41.8129497 52.5665938,37.6759795 50.2770829,33.9986725 L50.2770829,33.9986725 C46.2086715,27.2678875 35.2552562,22.5235049 32.4716063,15.0539752 L32.4716063,15.0539752 C30.4456362,9.70218033 32.784561,4.12055374 39.8342779,0 Z" id="Fill-11" fill="url(#linearGradient-10)"></path>
                    <path d="M40.9998573,70.4311004 C34.603394,82.7916641 15.759759,89.7739673 14.4727829,105.720038 L14.4727829,105.720038 C13.4355186,118.536653 31.0305947,129.340352 46.2438046,132.202467 L46.2438046,132.202467 L51.8335067,132.202467 C60.4581674,129.670596 69.467,125.975008 74.7109474,121.839094 L74.7109474,121.839094 C84.5649583,114.023318 85.2948851,101.316784 71.5223201,95.7969901 L71.5223201,95.7969901 C77.7651145,99.0365272 76.5741814,106.301897 70.0624666,107.685777 L70.0624666,107.685777 C64.1462183,108.959575 61.1880941,104.572047 63.6467947,100.98654 L63.6467947,100.98654 C66.6049189,96.7719964 72.0409522,92.8562453 72.0409522,87.9969397 L72.0409522,87.9969397 C72.5211672,83.7666704 68.5641959,79.2061571 64.1462183,76.9416263 L64.1462183,76.9416263 C66.3936243,84.4114327 59.2288171,89.9312264 52.8323538,92.8562453 L52.8323538,92.8562453 L52.3137217,92.8562453 C56.7701165,90.5917145 59.7474493,86.9433039 61.1880941,83.4364264 L61.1880941,83.4364264 C66.0478695,71.5633657 53.8119924,57.1112562 39.0213716,52.8809869 L39.0213716,52.8809869 C46.2438046,57.4257744 43.4585578,65.2415507 40.9998573,70.4311004" id="Fill-13" fill="url(#linearGradient-11)"></path>
                </g>
                <path d="M392,458 C376.536011,458 364,462.702338 364,468.5 C364,474.297662 376.536011,479 392,479 C407.463989,479 420,474.297662 420,468.5 C420,462.702338 407.463989,458 392,458" id="Fill-1" fill="#FEAFA2"></path>
                <path d="M173,468.5 C173,462.702338 160.461818,458 144.995152,458 C129.528485,458 117,462.702338 117,468.5 C117,474.297662 129.528485,479 144.995152,479 C160.461818,479 173,474.297662 173,468.5" id="Fill-3" fill="#FEAFA2"></path>
            </g>
            <g id="Group-4" transform="translate(200.500000, 200.000000) scale(-1, 1) translate(-200.500000, -200.000000) ">
                <g id="Group">
                    <polyline id="Fill-282" fill="#343534" points="177.365933 224.913167 362.972664 39.4419929 360.95698 37.4291815 175.350961 222.900356"></polyline>
                    <polyline id="Fill-283" fill="#343534" points="188.405897 235.945907 374.012629 50.4747331 371.996945 48.46121 186.391638 233.933096"></polyline>
                    <polyline id="Fill-284" fill="#343534" points="201.417385 245.009253 383.079645 63.4768683 381.063961 61.4633452 199.403126 242.99573"></polyline>
                    <polyline id="Fill-285" fill="#343534" points="220.073501 248.431317 390.444369 78.1864769 388.428686 76.1729537 218.059242 246.418505"></polyline>
                    <polyline id="Fill-286" fill="#343534" points="244.837922 245.750178 391.954352 98.7402135 389.938668 96.7266904 242.82295 243.737367"></polyline>
                    <polyline id="Fill-287" fill="#343534" points="264.517549 248.148043 394.354654 118.407829 392.33897 116.395018 262.501865 246.13452"></polyline>
                    <polyline id="Fill-288" fill="#343534" points="166.325256 213.881139 351.9327 28.4092527 349.917016 26.3964413 164.310284 211.867616"></polyline>
                    <polyline id="Fill-289" fill="#343534" points="157.255391 200.879004 338.919787 19.3459075 336.904103 17.3330961 155.241131 198.86548"></polyline>
                    <polyline id="Fill-290" fill="#343534" points="153.830865 182.236299 324.19746 11.9907473 322.181776 9.9772242 151.815893 180.222776"></polyline>
                    <polyline id="Fill-291" fill="#343534" points="156.51322 157.48968 303.627513 10.4790036 301.611829 8.46619217 154.498961 155.476868"></polyline>
                    <polyline id="Fill-292" fill="#343534" points="154.114343 137.822064 283.947886 8.08185053 281.932202 6.06903915 152.100083 135.808541"></polyline>
                    <polyline id="Fill-293" fill="#343534" points="169.778984 92.6398577 307.722984 230.481139 309.731545 228.468327 171.793243 90.6263345"></polyline>
                    <polyline id="Fill-294" fill="#343534" points="162.780359 107.425623 292.922309 237.474733 294.937993 235.46121 164.79533 105.4121"></polyline>
                    <polyline id="Fill-295" fill="#343534" points="157.107954 123.535231 276.803961 243.143772 278.819645 241.130249 159.122213 121.52242"></polyline>
                    <polyline id="Fill-296" fill="#343534" points="150.854348 139.066192 261.26254 249.392171 263.271101 247.379359 152.86932 137.052669"></polyline>
                    <polyline id="Fill-297" fill="#343534" points="180.676497 81.7501779 318.620497 219.592171 320.629059 217.578648 182.690757 79.7366548"></polyline>
                    <polyline id="Fill-298" fill="#343534" points="191.573298 70.8604982 329.518011 208.702491 331.526572 206.68968 193.58827 68.8476868"></polyline>
                    <polyline id="Fill-299" fill="#343534" points="202.470812 59.9708185 340.408401 197.812811 342.424085 195.8 204.485783 57.9580071"></polyline>
                    <polyline id="Fill-300" fill="#343534" points="213.368325 49.0818505 351.305915 186.923132 353.321599 184.91032 215.382584 47.0683274"></polyline>
                    <polyline id="Fill-301" fill="#343534" points="224.265838 38.1921708 362.203428 176.034164 364.219112 174.020641 226.280098 36.1793594"></polyline>
                    <polyline id="Fill-302" fill="#343534" points="235.162639 27.3024911 373.100941 165.144484 375.116625 163.130961 237.177611 25.2896797"></polyline>
                    <polyline id="Fill-303" fill="#343534" points="249.959041 20.3096085 380.102416 150.358719 382.118099 148.345196 251.974725 18.2960854"></polyline>
                    <polyline id="Fill-304" fill="#343534" points="266.084512 14.6405694 385.771972 134.248399 387.787655 132.235587 268.093073 12.6270463"></polyline>
                    <polyline id="Fill-305" fill="#343534" points="281.625933 8.39217082 392.025577 118.718149 394.041261 116.704626 283.634494 6.37864769"></polyline>
                    <g id="Fill-306">
                        <use fill="black" fill-opacity="1" filter="url(#filter-22)" xlink:href="#path-21"></use>
                        <use fill="url(#linearGradient-20)" fill-rule="evenodd" xlink:href="#path-21"></use>
                    </g>
                    <path d="M280.529059,18.1295374 L270.756909,8.37153025 C256.796696,12.4882562 242.915544,19.594306 229.323567,29.0085409 L236.882737,36.5622776 C251.198366,27.1921708 265.842345,20.7131673 280.529059,18.1295374" id="Fill-311" fill="#A5CA3B"></path>
                    <path d="M280.529059,18.1295374 L282.794032,15.8654804 L273.029005,6.10676157 C272.195666,5.27615658 270.977709,4.96725979 269.852345,5.29964413 C255.479023,9.53807829 241.307982,16.8113879 227.497343,26.3765125 C226.71671,26.9174377 226.216707,27.7758007 226.131236,28.7224199 C226.046478,29.6683274 226.384799,30.6021352 227.057169,31.2733096 L234.616339,38.8270463 C235.690421,39.9003559 237.367783,40.0733096 238.638448,39.2419929 C252.68698,30.0462633 266.946341,23.7686833 281.084618,21.2839858 C282.25984,21.0768683 283.221385,20.233452 283.584636,19.0932384 C283.940764,17.9537367 283.634494,16.7103203 282.794032,15.8654804 L280.529059,18.1295374 L279.973499,14.9758007 C264.738348,17.6569395 249.716874,24.33879 235.126314,33.883274 L236.882737,36.5622776 L239.149135,34.2975089 L231.589964,26.7437722 L229.323567,29.0085409 L231.14979,31.6412811 C244.523105,22.3765125 258.107247,15.4384342 271.668597,11.4434164 L270.756909,8.37153025 L268.491936,10.6362989 L278.256963,20.3950178 L280.529059,18.1295374 L279.973499,14.9758007 L280.529059,18.1295374" id="Fill-312" fill="#1A1919"></path>
                    <path d="M382.281918,119.814235 C379.69643,134.488256 373.214902,149.118149 363.834494,163.426335 L371.39865,170.979359 C380.814671,157.397153 387.930107,143.528826 392.046945,129.572954 L382.281918,119.814235" id="Fill-313" fill="#A5CA3B"></path>
                    <path d="M382.281918,119.814235 L379.126625,119.259075 C376.640853,133.385765 370.358757,147.632028 361.156412,161.671174 C360.323073,162.941637 360.494014,164.617082 361.56952,165.691103 L369.133677,173.244128 C369.803197,173.916014 370.736252,174.254804 371.683552,174.169395 C372.630853,174.084698 373.492682,173.585053 374.033996,172.80427 C383.599591,159.003559 390.878845,144.843416 395.12389,130.479004 C395.45865,129.351601 395.145258,128.13879 394.311918,127.308185 L384.546892,117.549466 C383.70643,116.704626 382.459982,116.4 381.320373,116.760142 C380.180764,117.119573 379.333179,118.081851 379.126625,119.259075 L382.281918,119.814235 L380.016945,122.079004 L389.781972,131.837722 L392.046945,129.572954 L388.977123,128.666192 C384.974245,142.214947 378.036874,155.790747 368.763304,169.15516 L371.39865,170.979359 L373.663623,168.714591 L366.10659,161.161566 L363.834494,163.426335 L366.519698,165.180783 C376.071048,150.60427 382.75913,135.590036 385.437211,120.369395 L382.281918,119.814235 L380.016945,122.079004 L382.281918,119.814235" id="Fill-314" fill="#1A1919"></path>
                    <path d="M246.394913,242.555872 L256.61151,252.762278 C271.76119,249.969395 287.195773,244.374377 302.060551,236.137367 L294.31833,228.4 C278.520497,236.476157 262.145737,241.244128 246.394913,242.555872" id="Fill-315" fill="#FFFFFE"></path>
                    <path d="M246.394913,242.555872 L244.128515,244.820641 L254.339414,255.027046 C255.087282,255.769395 256.155666,256.102491 257.188437,255.912456 C272.715613,253.050534 288.463588,247.332384 303.613268,238.938078 C304.496465,238.450534 305.09476,237.578648 305.237211,236.582918 C305.37254,235.586477 305.03778,234.58363 304.325524,233.872598 L296.583304,226.135231 C295.600391,225.15089 294.097531,224.914591 292.858206,225.548754 C277.409378,233.44911 261.419236,238.091103 246.128529,239.364413 C244.886355,239.467616 243.81441,240.284698 243.385632,241.454804 C242.956854,242.624199 243.247455,243.940214 244.128515,244.820641 L246.394913,242.555872 L246.661297,245.748043 C262.865115,244.396441 279.638739,239.502491 295.778455,231.251246 L294.31833,228.4 L292.053357,230.664769 L299.795577,238.402135 L302.060551,236.137367 L300.507833,233.335943 C285.920835,241.41637 270.81389,246.888256 256.02746,249.612811 L256.61151,252.762278 L258.876483,250.497509 L248.662735,240.291103 L246.394913,242.555872 L246.661297,245.748043 L246.394913,242.555872" id="Fill-316" fill="#1A1919"></path>
                    <path d="M171.86162,106.032028 L164.1194,98.2953737 C155.876464,113.151601 150.276709,128.570107 147.481817,143.713879 L157.695565,153.920285 C159.008964,138.182206 163.780366,121.817082 171.86162,106.032028" id="Fill-317" fill="#FFFFFE"></path>
                    <path d="M171.86162,106.032028 L174.128018,103.76726 L166.385798,96.030605 C165.673542,95.319573 164.669973,94.9836299 163.673528,95.1238434 C162.676369,95.2633452 161.804568,95.8626335 161.315961,96.7423488 C152.916329,111.882562 147.193353,127.619929 144.330085,143.133096 C144.139201,144.165125 144.473249,145.237011 145.215419,145.978648 L155.429167,156.185053 C156.31094,157.066192 157.627188,157.356584 158.798137,156.928114 C159.968373,156.499644 160.786043,155.427758 160.890032,154.186477 C162.163545,138.90605 166.808877,122.931673 174.714917,107.491103 C175.350249,106.250534 175.11378,104.752313 174.128018,103.76726 L171.86162,106.032028 L169.008323,104.573665 C160.751854,120.702491 155.853671,137.459075 154.50181,153.654093 L157.695565,153.920285 L159.961963,151.655516 L149.748215,141.44911 L147.481817,143.713879 L150.634261,144.294662 C153.360064,129.519573 158.836599,114.420641 166.922126,99.8483986 L164.1194,98.2953737 L161.853002,100.560142 L169.595222,108.296797 L171.86162,106.032028 L169.008323,104.573665 L171.86162,106.032028" id="Fill-318" fill="#1A1919"></path>
                    <path d="M68.9378117,311.232028 C71.9086306,308.350178 74.7469698,305.589324 77.3730568,303.029181 C74.7476821,305.588612 71.907206,308.352313 68.938524,311.232028 L68.9378117,311.232028 M108.5257,311.231317 C111.171018,308.539502 112.756499,306.932384 112.841258,306.846263 C112.755787,306.933096 111.166744,308.543772 108.5257,311.231317 M112.84197,306.845552 C112.842682,306.845552 112.842682,306.84484 112.843394,306.84484 C112.842682,306.84484 112.842682,306.845552 112.84197,306.845552 M112.843394,306.844128 C112.844107,306.844128 112.844107,306.843416 112.844107,306.843416 C112.844107,306.843416 112.844107,306.844128 112.843394,306.844128 M112.844819,306.843416 C112.844819,306.843416 112.844819,306.843416 112.844819,306.842705 C112.844819,306.843416 112.844819,306.843416 112.844819,306.843416 M112.844819,306.842705 L109.029265,303.029181 L112.844819,306.842705" id="Fill-325" fill="#1A1919"></path>
                    <path d="M90.2242877,329.957295 L90.2242877,329.957295 C92.817611,327.28968 95.3033837,324.73879 97.6153659,322.370819 C95.3033837,324.73879 92.817611,327.28968 90.2242877,329.957295 M49.4910924,329.957295 L49.4910924,329.957295 C52.3244458,327.253381 55.1969734,324.498932 58.0481332,321.754448 C55.1962611,324.500356 52.3251581,327.252669 49.4910924,329.957295" id="Fill-328" fill="#1A1919"></path>
                    <g id="Group-2">
                        <g id="Group-310" filter="url(#filter-23)" transform="translate(84.758437, 0.000000)" fill="#1A1919">
                            <path d="M78.6722114,257.884698 L77.3979858,254.945907 C63.3067176,261.048399 49.2930853,269.958007 38.4247744,277.619217 C38.2944316,277.704626 38.2652291,277.704626 38.2552575,277.703915 C38.2531208,277.703915 38.250984,277.703915 38.2495595,277.705338 L38.1904423,277.688968 C38.1341741,277.667616 38.0422931,277.595018 37.9945719,277.52242 C37.9440018,277.447687 37.9425773,277.404982 37.9425773,277.401423 C37.9489876,277.394306 37.9219218,277.390036 38.0266234,277.227758 C45.6021758,266.274733 54.4334352,252.176512 60.5381794,238.098221 C64.0852131,229.913167 66.8345204,221.6 68.9734245,213.565125 C68.9990657,213.470463 69.0261314,213.423488 69.0517726,213.385765 C69.0895222,213.332384 69.1343943,213.291103 69.2148792,213.249822 C69.2932274,213.209964 69.403627,213.182918 69.5054796,213.18363 C69.6144547,213.18363 69.7006377,213.210676 69.7561936,213.241993 C69.8124618,213.27758 69.8544849,213.302491 69.9335453,213.434875 C73.6479591,220.070463 78.2541172,226.221352 83.7684014,231.732384 C89.2833979,237.243416 95.4394245,241.845552 102.079073,245.558007 C102.211552,245.636299 102.236481,245.678292 102.272094,245.73452 C102.303433,245.790036 102.330499,245.876157 102.330499,245.985053 C102.331924,246.12242 102.280641,246.268327 102.222948,246.345196 L102.128218,246.439146 C102.090469,246.464769 102.04346,246.491103 101.94873,246.517438 C93.9080746,248.654093 85.5889272,251.401423 77.3979858,254.945907 L79.9457247,260.824199 C87.7919343,257.42847 95.8133588,254.775801 103.596178,252.707473 C104.39889,252.495374 105.146046,252.146619 105.794199,251.69395 C106.770702,251.014235 107.516433,250.111032 108.005041,249.125979 C108.495073,248.13879 108.740089,247.067616 108.740801,245.985053 C108.740801,244.844128 108.463734,243.678292 107.870425,242.614235 C107.282101,241.551601 106.361155,240.607117 105.209437,239.967972 C99.0655187,236.532384 93.3924014,232.28968 88.3019094,227.202847 C83.2114174,222.115302 78.9649485,216.446975 75.5276021,210.307473 C74.8872842,209.156584 73.9421208,208.236299 72.8787229,207.647687 C71.8139005,207.054804 70.6472256,206.777936 69.5054796,206.777936 C68.0631616,206.780071 66.632952,207.212811 65.4092966,208.086121 C64.7996057,208.523132 64.2454707,209.07331 63.792476,209.72242 C63.3401936,210.370819 62.990476,211.117438 62.7782238,211.918861 C60.7084085,219.696085 58.0545435,227.711744 54.655659,235.552313 C48.8315435,249.002847 40.189032,262.845552 32.7545062,273.58363 C31.9496572,274.735231 31.525865,276.100356 31.5322753,277.401423 C31.5322753,278.336655 31.7366927,279.229893 32.0864103,280.026335 C32.6127673,281.222064 33.4503801,282.213523 34.5016696,282.935943 C35.5501101,283.655516 36.8449911,284.11032 38.2495595,284.111032 C39.570794,284.118149 40.9582682,283.681851 42.1213819,282.853381 C52.7667567,275.340214 66.5125808,266.63274 79.9457247,260.824199 L78.6722114,257.884698 M271.340959,44.2967972 L269.075986,46.5615658 C278.684316,56.169395 285.464991,65.9103203 289.852487,75.6932384 C294.23286,85.4782918 296.234298,95.3131673 296.234298,105.212811 C296.234298,120.472598 291.440817,135.94306 282.950728,151.291103 C274.467762,166.632028 262.288188,181.809253 247.715435,196.367972 C234.025879,210.048399 218.68389,220.548754 202.935915,227.709609 C187.195062,234.872598 171.062469,238.692527 155.813785,239.050534 L155.889996,242.252669 L155.845837,239.049822 C155.328739,239.05694 154.766057,239.066904 154.1293,239.081851 L154.206224,242.283986 L154.182719,239.081139 C153.936279,239.083274 153.689126,239.083986 153.442686,239.083986 C142.633492,239.083986 132.310769,237.32669 122.904719,233.780783 C113.497957,230.233452 105.00502,224.904626 97.8019769,217.708897 C90.601071,210.511032 85.2684121,202.024199 81.7178171,192.624199 C78.1686465,183.224911 76.410087,172.909609 76.410087,162.108185 C76.410087,161.899644 76.4107993,161.691815 76.4122238,161.483986 L73.2070728,161.462633 L76.4115115,161.541637 C76.4293179,160.819217 76.4400018,160.190747 76.4471243,159.619217 L73.2426856,159.577936 L76.4464121,159.655516 C76.8174973,144.42847 80.6458721,128.320285 87.813302,112.604982 C94.9793073,96.8896797 105.480094,81.569395 119.158254,67.9017794 C133.727446,53.3402135 148.915588,41.1729537 164.267549,32.6925267 C179.623783,24.2064057 195.108224,19.4170819 210.378988,19.4185053 C220.286465,19.4213523 230.12984,21.4213523 239.923357,25.8 C249.709751,30.1800712 259.460533,36.9544484 269.075986,46.5615658 L273.605933,42.0320285 C263.527513,31.9601423 253.135702,24.6939502 242.537336,19.9537367 C231.946092,15.2113879 221.155417,13.0106762 210.378988,13.0128114 C193.747815,13.0142349 177.209236,18.2199288 161.165675,27.0868327 C145.112854,35.9594306 129.508043,48.5032028 114.625458,63.372242 C100.414531,77.5736655 89.4749947,93.5160142 81.9806394,109.948754 C74.4869964,126.382918 70.4349734,143.311032 70.0382469,159.499644 L70.0375346,159.535943 C70.0304121,160.090391 70.0204405,160.690391 70.0033464,161.382918 L70.0026341,161.440569 C70.0004973,161.664057 69.9997851,161.886833 69.9997851,162.108185 C69.9997851,173.602847 71.8715933,184.690391 75.7199112,194.884698 C79.5668046,205.078292 85.3994671,214.375801 93.2698934,222.238434 C101.137471,230.102491 110.44238,235.930961 120.642595,239.774377 C130.844947,243.619929 141.940467,245.48968 153.442686,245.48968 C153.704796,245.48968 153.966906,245.488968 154.229728,245.486833 L154.28386,245.486121 C154.894263,245.471174 155.432728,245.461922 155.932732,245.455516 L155.965496,245.454804 C172.18071,245.070463 189.132398,241.027758 205.592629,233.539502 C222.05286,226.050534 238.021634,215.111744 252.252504,200.898221 C267.131528,186.025623 279.681474,170.432028 288.563304,154.390747 C297.430888,138.355872 302.6446,121.831317 302.6446,105.212811 C302.6446,94.4455516 300.44373,83.66121 295.700107,73.0754448 C290.956483,62.4868327 283.684352,52.1032028 273.605933,42.0320285 L271.340959,44.2967972 M257.174192,205.820641 L259.439165,208.085409 C275.913641,191.622776 289.802629,174.365836 299.617513,156.62847 C309.432398,138.897509 315.180302,120.64484 315.180302,102.303203 C315.187425,90.4185053 312.758632,78.5202847 307.51643,66.833452 C302.28135,55.1437722 294.247105,43.6725979 283.107425,32.53879 C271.960622,21.402847 260.486181,13.3779359 248.783819,8.14448399 C237.088579,2.9088968 225.186785,0.48113879 213.292114,0.483985765 C194.937282,0.485409253 176.667922,6.23131673 158.926343,16.0362989 C141.176217,25.8462633 123.906863,39.7252669 107.433099,56.1850534 C91.2926714,72.313879 78.969222,90.4711744 70.6700178,109.158007 C62.3729503,127.845552 58.0958544,147.066192 58.0944298,165.336655 C58.0944298,166.444128 58.1100995,167.548754 58.1414387,168.649822 L61.3458774,168.557295 L58.1471368,168.348043 C57.2190675,182.622776 54.0979627,207.968683 44.11,230.989324 C36.6035364,248.312456 27.0379414,262.74306 19.3299094,272.841281 C15.4766057,277.891103 12.0891172,281.858363 9.66032504,284.56726 C8.44592895,285.921708 7.47156306,286.960854 6.79848135,287.664057 C6.46229663,288.015658 6.20089876,288.282562 6.02354707,288.463345 C5.9345151,288.553025 5.86613854,288.621352 5.81984192,288.667616 L5.76713499,288.720285 L5.75431439,288.733808 L5.75146536,288.735943 L6.34691119,289.340214 L5.75288988,288.73452 L5.75146536,288.735943 L6.34691119,289.340214 L5.75288988,288.73452 L5.75787567,288.729537 L1.59616519,292.788612 C0.982912966,293.386477 0.634619893,294.205694 0.629634103,295.06121 C0.624648313,295.916726 0.962969805,296.740925 1.56838721,297.345196 L13.9972504,309.765125 L18.1069663,313.866192 C18.7123837,314.471174 19.5336146,314.807829 20.389746,314.802847 C21.2458774,314.797865 22.0628348,314.451957 22.6625542,313.840569 L26.7252611,309.69395 L26.7281101,309.68968 L25.5956234,308.585765 L26.7245488,309.69395 L26.7281101,309.68968 L25.5956234,308.585765 L26.7245488,309.69395 C26.7437798,309.674021 27.1369449,309.276868 27.8541865,308.592883 C32.8827123,303.782918 54.2888472,284.432028 84.5127087,271.362278 C107.551334,261.380071 132.919036,258.261922 147.204037,257.335943 L146.993922,254.139502 L146.902041,257.340925 C148.001764,257.372954 149.10576,257.388612 150.212606,257.388612 C168.498348,257.386477 187.729254,253.112456 206.433091,244.821352 C225.129805,236.528826 243.299449,224.213523 259.439165,208.085409 L254.909218,203.555872 C239.31794,219.136655 221.789325,231.00427 203.833357,238.966548 C185.877389,246.930249 167.494067,250.984342 150.212606,250.982918 C149.166302,250.982918 148.12356,250.967972 147.085803,250.938078 C146.951899,250.933808 146.91771,250.93452 146.784519,250.943772 C132.072163,251.915302 106.120412,255.043416 81.9649698,265.483986 C64.001167,273.259786 49.1556199,283.097509 38.7424405,291.031317 C33.5358508,294.999288 29.4382433,298.491815 26.6169982,301.017794 C25.2060195,302.281139 24.1148437,303.302491 23.3641261,304.020641 C22.9880551,304.379359 22.6974547,304.663345 22.4944618,304.863345 C22.3933215,304.962989 22.3135488,305.041993 22.2558561,305.100356 L22.1404707,305.215658 L22.144032,305.212811 L20.3462984,307.047687 L18.5264849,305.23274 L18.5286217,305.234164 L8.39535879,295.108185 L10.2358277,293.313879 L10.2408135,293.308185 C10.2771385,293.272598 10.3861137,293.164413 10.5883943,292.960142 C12.0869805,291.440569 18.2850302,284.992171 25.9375062,274.723132 C33.5885577,264.453381 42.6975968,250.363701 49.9925204,233.53452 C60.4391758,209.399288 63.5709645,183.469751 64.5439059,168.76726 C64.5524529,168.633452 64.5531652,168.599288 64.5496039,168.46548 C64.5196892,167.427046 64.5047318,166.38363 64.5047318,165.336655 C64.5033073,148.067616 68.5596039,129.700356 76.529746,111.755872 C84.4977513,93.8120996 96.3731918,76.2953737 111.965183,60.7145907 C128.126979,44.5622776 144.97895,31.0597865 162.028217,21.6419929 C179.082469,12.2177936 196.297691,6.88754448 213.292114,6.88967972 C224.317833,6.89252669 235.272327,9.11957295 246.16984,13.9907473 C257.060231,18.8640569 267.893641,26.397153 278.570355,37.0676157 C289.254192,47.73879 296.789858,58.5679715 301.66881,69.4512456 C306.540639,80.3380783 308.77,91.2868327 308.77,102.303203 C308.777123,119.285409 303.442327,136.485409 294.01206,153.528826 C284.588917,170.566548 271.070302,187.406406 254.909218,203.555872 L257.174192,205.820641" id="Fill-308"></path>
                        </g>
                        <g id="Fill-322">
                            <use fill="black" fill-opacity="1" filter="url(#filter-25)" xlink:href="#path-24"></use>
                            <use fill="#1A1919" fill-rule="evenodd" xlink:href="#path-24"></use>
                        </g>
                        <path d="M68.938524,311.232028 C71.907206,308.352313 74.7476821,305.588612 77.3730568,303.029181 L109.029265,303.029181 L112.844819,306.842705 C112.844819,306.843416 112.844819,306.843416 112.844819,306.843416 L112.844107,306.843416 C112.844107,306.843416 112.844107,306.844128 112.843394,306.844128 L112.843394,306.84484 C112.842682,306.84484 112.842682,306.845552 112.84197,306.845552 C112.84197,306.846263 112.84197,306.846263 112.841258,306.846263 C112.756499,306.932384 111.171018,308.539502 108.5257,311.231317 L68.9378117,311.232028" id="Fill-323" stroke="#000000" fill="url(#linearGradient-20)"></path>
                        <path d="M90.2242877,329.957295 L49.4910924,329.957295 C52.3251581,327.252669 55.1962611,324.500356 58.0488455,321.754448 L98.217222,321.754448 C98.0177904,321.958719 97.8176465,322.164413 97.6153659,322.370819 C95.3033837,324.73879 92.817611,327.28968 90.2242877,329.957295" id="Fill-326" stroke="#000000" fill="url(#linearGradient-20)"></path>
                        <polyline id="Fill-338" points="83.0618437 288.839146 111.378284 317.136655 123.144037 305.376512 94.8283091 277.083274 83.0618437 288.839146"></polyline>
                    </g>
                </g>
                <g id="Group-3" transform="translate(0.000000, 281.000000)">
                    <g id="Fill-322">
                        <use fill="black" fill-opacity="1" filter="url(#filter-27)" xlink:href="#path-26"></use>
                        <use fill="#F8E71C" fill-rule="evenodd" xlink:href="#path-26"></use>
                    </g>
                    <rect id="Rectangle" fill="#F8E71C" transform="translate(59.850927, 57.237469) rotate(-43.000000) translate(-59.850927, -57.237469) " x="-0.230891881" y="40.8482475" width="120.163638" height="32.7784431"></rect>
                    <rect id="Rectangle" fill="#F8E71C" transform="translate(58.912071, 60.372070) rotate(-49.000000) translate(-58.912071, -60.372070) " x="-1.16974817" y="43.9828488" width="120.163638" height="32.7784431"></rect>
                    <rect id="Rectangle" fill="#F8E71C" transform="translate(58.234346, 59.624646) rotate(-41.000000) translate(-58.234346, -59.624646) " x="-1.84747329" y="43.2354242" width="120.163638" height="32.7784431"></rect>
                </g>
            </g>
        </g>
    </g>
</svg>