<?xml version="1.0" encoding="UTF-8"?>
<svg width="861px" height="641px" viewBox="0 0 861 641" version="1.1" xmlns="http://www.w3.org/2000/svg" xmlns:xlink="http://www.w3.org/1999/xlink">
    <!-- Generator: Sketch 47.1 (45422) - http://www.bohemiancoding.com/sketch -->
    <title>Group 81</title>
    <desc>Created with Sketch.</desc>
    <defs>
        <filter x="-1.4%" y="-0.8%" width="102.7%" height="102.2%" filterUnits="objectBoundingBox" id="filter-1">
            <feOffset dx="0" dy="2" in="SourceAlpha" result="shadowOffsetOuter1"></feOffset>
            <feGaussianBlur stdDeviation="2" in="shadowOffsetOuter1" result="shadowBlurOuter1"></feGaussianBlur>
            <feColorMatrix values="0 0 0 0 0   0 0 0 0 0   0 0 0 0 0  0 0 0 0.5 0" type="matrix" in="shadowBlurOuter1" result="shadowMatrixOuter1"></feColorMatrix>
            <feMerge>
                <feMergeNode in="shadowMatrixOuter1"></feMergeNode>
                <feMergeNode in="SourceGraphic"></feMergeNode>
            </feMerge>
        </filter>
        <linearGradient x1="50%" y1="0%" x2="50%" y2="100%" id="linearGradient-2">
            <stop stop-color="#CC85FF" offset="0%"></stop>
            <stop stop-color="#5C01DD" offset="100%"></stop>
        </linearGradient>
        <polygon id="path-3" points="28.6119815 0.117757485 0 0.117757485 0 114.323353 28.6119815 114.323353 57.2239631 114.323353 57.2239631 0.117757485"></polygon>
        <polygon id="path-5" points="50.6995588 9.82235529 0.595211885 9.82235529 0.595211885 0.90681018 50.6995588 0.90681018 50.6995588 9.82235529"></polygon>
        <linearGradient x1="50%" y1="0%" x2="50%" y2="100%" id="linearGradient-7">
            <stop stop-color="#FFFFFF" offset="0%"></stop>
            <stop stop-color="#CCCCCC" offset="100%"></stop>
        </linearGradient>
        <path d="M149.684143,0.412862402 C149.130817,0.412862402 148.577492,0.419958676 148.033789,0.434151223 C146.034601,0.47909429 144.047441,0.621019764 142.08915,0.859927646 C118.012278,3.78359242 96.7790174,20.5828377 79.5730034,36.4193552 C76.0172863,39.6386981 72.6636532,43.0472749 69.37257,46.4156395 C51.6445055,63.1013444 37.3037547,83.2973394 26.5812708,105.234287 C16.43617,124.003931 8.41295177,143.956287 2.60784665,164.509461 C1.74658364,167.631822 0.952681985,170.747086 0.182837957,173.923851 L30.7215883,182.207568 C49.4528558,156.854947 74.8504914,136.56197 104.621803,124.13876 C132.131699,112.727952 162.98801,107.571326 184.70964,85.6249171 C199.038362,71.1745384 206.796946,50.4818043 200.21478,30.5483714 C193.408878,10.0022936 169.664001,0.412862402 149.69136,0.412862402 C149.688954,0.412862402 149.686548,0.412862402 149.684143,0.412862402 Z" id="path-8"></path>
        <linearGradient x1="50%" y1="0%" x2="50%" y2="100%" id="linearGradient-10">
            <stop stop-color="#FFFFFF" offset="0%"></stop>
            <stop stop-color="#000000" offset="100%"></stop>
        </linearGradient>
        <path d="M115.707681,303.830813 L103.020051,291.143183 C105.647025,288.097197 108.904327,284.123447 112.47209,279.331935 C120.245904,268.889897 129.5011,254.563846 136.913073,237.452335 C147.527348,212.912207 150.709387,186.547671 151.697939,171.598529 C151.706624,171.462476 151.707347,171.427739 151.703729,171.291687 C151.673334,170.235832 151.658137,169.174911 151.658137,168.110371 C151.656689,150.551624 155.77807,131.876232 163.876096,113.630708 C171.97195,95.3859078 184.037935,77.5753181 199.880104,61.7331493 C216.30122,45.3098621 233.423586,31.5808509 250.746412,22.0050627 C268.074305,12.4242088 285.558513,7.00526218 302.825616,7.00526218 C302.825616,7.00526218 302.825616,7.00526218 302.832853,7.00526218 C314.035483,7.00815692 325.165744,9.2725645 336.238111,14.2254585 C347.303241,19.1805236 358.310476,26.8399963 369.158501,37.6894684 C380.013763,48.5396643 387.670341,59.550518 392.627577,70.6163717 C397.577576,81.6858439 399.842707,92.8182765 399.842707,104.019459 C399.849944,121.286562 394.42955,138.775112 384.847973,156.104452 C375.273632,173.428002 361.538108,190.550368 345.117715,206.970761 C329.27627,222.81293 311.466404,234.879638 293.222328,242.975492 C274.978251,251.071347 256.307201,255.193451 238.749901,255.193451 C238.747006,255.193451 238.744835,255.193451 238.741217,255.193451 C237.678125,255.193451 236.618651,255.178254 235.564244,255.147859 C235.512862,255.146412 235.475954,255.145688 235.442665,255.145688 C235.387665,255.145688 235.342796,255.147859 235.258125,255.153649 C220.309706,256.141477 193.941552,259.322069 169.398529,269.937791 C151.146492,277.84404 136.062744,287.846802 125.482483,295.913709 C121.59268,298.88009 118.311497,301.585945 115.707681,303.830813 M156.739123,210.246879 C155.273663,210.24905 153.820505,210.68905 152.577216,211.57701 C151.957742,212.021352 151.394716,212.58076 150.934453,213.24076 C150.474913,213.900036 150.119584,214.659181 149.903926,215.474049 C147.8009,223.381745 145.104453,231.531876 141.651033,239.50398 C135.733468,253.180162 126.952285,267.255094 119.39847,278.173317 C118.580707,279.344237 118.150115,280.732264 118.156628,282.055158 C118.156628,283.006079 118.364326,283.914303 118.719655,284.724105 C119.254457,285.939894 120.10551,286.947986 121.173667,287.682526 C122.23893,288.41417 123.554588,288.876605 124.981693,288.877328 C124.991825,288.877328 125.00268,288.877328 125.012812,288.877328 C126.345838,288.877328 127.742548,288.434434 128.91564,287.598578 C139.731823,279.959369 153.698202,271.105818 167.346885,265.199831 C175.318989,261.747135 183.469119,259.049964 191.376815,256.946938 C192.192407,256.73128 192.951552,256.376675 193.610105,255.916412 C194.602276,255.225293 195.359973,254.306938 195.85642,253.305359 C196.354315,252.30161 196.603262,251.212465 196.603986,250.111741 C196.603986,248.951676 196.322473,247.766281 195.719644,246.684374 C195.121881,245.603913 194.186157,244.643584 193.01596,243.993716 C186.773461,240.500493 181.009317,236.186612 175.837147,231.014442 C170.664976,225.841547 166.350372,220.078127 162.857872,213.835628 C162.20728,212.665431 161.246951,211.729707 160.166491,211.131221 C159.084583,210.528392 157.899189,210.246879 156.739123,210.246879 M299.894695,13.2311166 C299.887458,13.2311166 299.880221,13.2311166 299.872985,13.2311166 C282.974961,13.2325639 266.171016,18.5255895 249.870031,27.5412462 C233.559639,36.5626923 217.704443,49.316901 202.583064,64.4353858 C188.144119,78.8750548 177.029054,95.0848552 169.41445,111.793274 C161.80057,128.50314 157.683531,145.715243 157.280439,162.175438 L157.279715,162.212346 C157.272478,162.776096 157.262347,163.386161 157.244978,164.090306 L157.244254,164.148925 C157.242083,164.376161 157.24136,164.602674 157.24136,164.82774 C157.24136,176.515239 159.143202,187.78879 163.053267,198.154117 C166.961885,208.518721 172.888134,217.972206 180.884843,225.966745 C188.878658,233.962731 198.332867,239.88898 208.696747,243.796874 C219.062798,247.706939 230.33635,249.608057 242.023124,249.608057 C242.28944,249.608057 242.555756,249.607334 242.822795,249.605163 L242.877795,249.604439 C243.497992,249.589242 244.045098,249.579834 244.553124,249.573321 L244.586413,249.572597 C261.061806,249.181807 278.285488,245.071282 295.009827,237.457401 C311.734167,229.842797 327.959165,218.720496 342.418373,204.268524 C357.536134,189.146421 370.287448,173.291226 379.311789,156.980833 C388.321656,140.676954 393.619024,123.87518 393.619024,106.97788 C393.619024,96.0299866 391.38284,85.064725 386.563104,74.3013712 C381.743368,63.5351227 374.354553,52.9772953 364.114423,42.7371651 L361.813108,45.0399279 L364.114423,42.7371651 C353.874293,32.4963113 343.315742,25.1082202 332.547322,20.288484 C321.793376,15.4694715 310.836799,13.2311166 299.894695,13.2311166" id="path-11"></path>
        <filter x="-2.4%" y="-1.7%" width="104.7%" height="104.7%" filterUnits="objectBoundingBox" id="filter-12">
            <feOffset dx="0" dy="2" in="SourceAlpha" result="shadowOffsetOuter1"></feOffset>
            <feGaussianBlur stdDeviation="2" in="shadowOffsetOuter1" result="shadowBlurOuter1"></feGaussianBlur>
            <feColorMatrix values="0 0 0 0 0   0 0 0 0 0   0 0 0 0 0  0 0 0 0.5 0" type="matrix" in="shadowBlurOuter1"></feColorMatrix>
        </filter>
        <filter x="-2.2%" y="-1.6%" width="104.4%" height="104.4%" filterUnits="objectBoundingBox" id="filter-13">
            <feOffset dx="0" dy="2" in="SourceAlpha" result="shadowOffsetOuter1"></feOffset>
            <feGaussianBlur stdDeviation="2" in="shadowOffsetOuter1" result="shadowBlurOuter1"></feGaussianBlur>
            <feColorMatrix values="0 0 0 0 0   0 0 0 0 0   0 0 0 0 0  0 0 0 0.5 0" type="matrix" in="shadowBlurOuter1" result="shadowMatrixOuter1"></feColorMatrix>
            <feMerge>
                <feMergeNode in="shadowMatrixOuter1"></feMergeNode>
                <feMergeNode in="SourceGraphic"></feMergeNode>
            </feMerge>
        </filter>
        <path d="M94.8597894,285.680815 C93.2076186,285.680815 91.5554478,286.305355 90.2868295,287.556605 C57.7116367,319.68239 20.4172998,355.417911 14.6632874,359.152121 C8.32164358,361.588042 3.61263108,365.391725 3.08651273,365.825936 C1.56460505,367.082252 0.694013061,368.960935 0.719342005,370.934422 C0.87348672,382.729026 10.4825643,392.113038 12.7151298,394.135735 C14.7392743,396.369024 24.1232861,405.974483 35.914995,406.131522 L36.0018371,406.132246 C37.9456526,406.132246 39.7895997,405.263825 41.0278232,403.762181 C41.46131,403.236062 45.2592042,398.528497 47.6980197,392.186853 C51.4293349,386.436459 87.1663037,349.139951 119.293536,316.564035 C121.806167,314.015219 121.792417,309.916273 119.261694,307.385549 L99.4653151,287.588447 C98.1938021,286.316934 96.5271576,285.680815 94.8597894,285.680815 M114.655445,311.990351 C114.655445,311.990351 43.8863755,383.748697 41.7428231,389.522248 C39.6245997,395.224155 36.0018371,399.619089 36.0018371,399.619089 C25.9737464,399.485931 17.328616,389.522248 17.328616,389.522248 C17.328616,389.522248 7.36276213,380.877842 7.23177531,370.849027 C7.23177531,370.849027 11.6259852,367.22337 17.3271686,365.108765 C23.1007205,362.964489 94.8597894,292.193972 94.8597894,292.193972 L114.655445,311.990351 Z" id="path-14"></path>
        <filter x="-5.8%" y="-4.2%" width="111.6%" height="111.6%" filterUnits="objectBoundingBox" id="filter-15">
            <feOffset dx="0" dy="2" in="SourceAlpha" result="shadowOffsetOuter1"></feOffset>
            <feGaussianBlur stdDeviation="2" in="shadowOffsetOuter1" result="shadowBlurOuter1"></feGaussianBlur>
            <feColorMatrix values="0 0 0 0 0   0 0 0 0 0   0 0 0 0 0  0 0 0 0.5 0" type="matrix" in="shadowBlurOuter1"></feColorMatrix>
        </filter>
        <path d="M94.1409852,0 C92.4888144,0 90.8366435,0.624539387 89.5680253,1.87578921 C56.9928325,34.0015742 19.6984955,69.7370956 13.9444832,73.4713056 C7.60283933,75.9072263 2.89382683,79.71091 2.36770848,80.1451204 C0.845800797,81.401436 -0.0247911873,83.28012 0.000537756543,85.2536065 C0.154682472,97.0482102 9.76376008,106.432222 11.9963256,108.454919 C14.02047,110.688208 23.4044819,120.293667 35.1961908,120.450707 L35.2830328,120.451431 C37.2268484,120.451431 39.0707955,119.58301 40.309019,118.081365 C40.7425058,117.555247 44.5404,112.847682 46.9792154,106.506038 C50.7105307,100.755644 86.4474994,63.4591359 118.574732,30.8832194 C121.087363,28.3344039 121.073613,24.2354572 118.54289,21.7047338 L98.7465108,1.90763131 C97.4749979,0.636118332 95.8083534,0 94.1409852,0 M113.93664,26.3095358 C113.93664,26.3095358 43.1675712,98.0678811 41.0240189,103.841433 C38.9057955,109.54334 35.2830328,113.938274 35.2830328,113.938274 C25.2549421,113.805116 16.6098118,103.841433 16.6098118,103.841433 C16.6098118,103.841433 6.64395788,95.1970262 6.51297106,85.1682118 C6.51297106,85.1682118 10.907181,81.5425544 16.6083644,79.4279495 C22.3819162,77.2836734 94.1409852,6.51315699 94.1409852,6.51315699 L113.93664,26.3095358 Z" id="path-16"></path>
        <filter x="-5.8%" y="-4.2%" width="111.6%" height="111.6%" filterUnits="objectBoundingBox" id="filter-17">
            <feOffset dx="0" dy="2" in="SourceAlpha" result="shadowOffsetOuter1"></feOffset>
            <feGaussianBlur stdDeviation="2" in="shadowOffsetOuter1" result="shadowBlurOuter1"></feGaussianBlur>
            <feColorMatrix values="0 0 0 0 0   0 0 0 0 0   0 0 0 0 0  0 0 0 0.5 0" type="matrix" in="shadowBlurOuter1"></feColorMatrix>
        </filter>
    </defs>
    <g id="MINI-GAME" stroke="none" stroke-width="1" fill="none" fill-rule="evenodd">
        <g id="Group-81" transform="translate(3.000000, -16.000000)">
            <g id="Group-75">
                <g id="Group-70">
                    <g id="Group-41" filter="url(#filter-1)">
                        <path d="M83.668123,508.349773 C101.571192,550.303252 135.122969,584.202004 177.1412,602.982556 L168.070113,616.787878 C161.335103,627.036695 164.35258,640.844227 174.77374,647.467854 C185.197314,654.091482 199.234619,651.123907 205.969629,640.872716 L221.979941,616.506562 C232.067777,618.195753 242.436076,619.075522 253.013309,619.075522 C267.489538,619.075522 281.574408,617.427605 295.084545,614.312111 L312.536068,640.87414 C319.271078,651.122957 333.308383,654.090532 343.731957,647.466905 C354.155531,640.843278 357.170594,627.038119 350.435585,616.786928 L338.364961,598.416252 C373.237646,580.372849 401.48619,551.617519 418.586917,516.599129 C464.263865,486.120061 526.316862,423.969527 510.499376,431.985849 L472.995127,431.330084 C494.804193,400.585016 512.791944,371.644421 512.791944,371.644421 L464.104397,381.991752 C469.480454,352.773967 472.72021,329.313897 472.72021,329.313897 L421.425727,366.57917 C393.157895,302.679737 328.39103,258 253.013309,258 C179.356086,258 115.830863,300.663381 86.5932717,362.233992 L41.2797896,329.313897 C41.2797896,329.313897 44.5195456,352.773967 49.8956035,381.991752 L1.20805639,371.644421 C1.20805639,371.644421 19.1958066,400.585016 41.0048731,431.330084 L3.50062366,431.985849 C-10.9944218,424.639741 39.9044156,476.218184 83.668123,508.349773 Z" id="Combined-Shape" fill="url(#linearGradient-2)"></path>
                        <g id="Group-29" transform="translate(125.000000, 360.000000)">
                            <g id="Page-1" transform="translate(103.201538, 148.978044)">
                                <g id="Group-3" transform="translate(0.000000, 0.729750)">
                                    <mask id="mask-4" fill="white">
                                        <use xlink:href="#path-3"></use>
                                    </mask>
                                    <g id="Clip-2"></g>
                                    <path d="M50.1417575,114.323353 L28.6113365,114.323353 L7.08091556,114.323353 C3.17215729,114.323353 -0.00129001923,110.863743 -0.00129001923,106.584076 L-0.00129001923,7.85703493 C-0.00129001923,3.57736826 3.17215729,0.117757485 7.08091556,0.117757485 L50.1417575,0.117757485 C54.0505158,0.117757485 57.2239631,3.57736826 57.2239631,7.85703493 L57.2239631,106.584076 C57.2239631,110.863743 54.0505158,114.323353 50.1417575,114.323353" id="Fill-1" fill="#D57F2B" mask="url(#mask-4)"></path>
                                </g>
                                <g id="Group-6" transform="translate(2.988462, 105.230748)">
                                    <mask id="mask-6" fill="white">
                                        <use xlink:href="#path-5"></use>
                                    </mask>
                                    <g id="Clip-5"></g>
                                    <path d="M46.4940961,9.26112954 L4.80067458,9.26112954 C2.47863996,9.26112954 0.595211885,7.39037705 0.595211885,5.08396986 L0.595211885,5.08396986 C0.595211885,2.77756267 2.47863996,0.90681018 4.80067458,0.90681018 L46.4940961,0.90681018 C48.8161307,0.90681018 50.6995588,2.77756267 50.6995588,5.08396986 L50.6995588,5.08396986 C50.6995588,7.39037705 48.8161307,9.26112954 46.4940961,9.26112954" id="Fill-4" fill="#F34854" mask="url(#mask-6)"></path>
                                </g>
                            </g>
                            <g id="Group-21" transform="translate(0.000000, 21.693613)">
                                <ellipse id="Oval" fill="url(#linearGradient-7)" cx="58.0508654" cy="64.0668663" rx="58.0508654" ry="64.0668663"></ellipse>
                                <g id="Group-7" transform="translate(20.869423, 3.988024)">
                                    <path d="M44.8612786,0.792349916 C69.4854002,0.792349916 89.4548979,19.4900184 89.4548979,42.5540903 C89.4548979,65.6083057 69.4854002,84.3059742 44.8612786,84.3059742 C20.2266023,84.3059742 0.257104591,65.6083057 0.257104591,42.5540903 C0.257104591,19.4900184 20.2266023,0.792349916 44.8612786,0.792349916" id="Fill-3" fill="#2D363A"></path>
                                    <path d="M44.8612786,7.02359189 C65.8123637,7.02359189 82.8054352,22.9318876 82.8054352,42.5462051 C82.8054352,62.1703791 65.8123637,78.0688184 44.8612786,78.0688184 C23.9101936,78.0688184 6.91712206,62.1703791 6.91712206,42.5462051 C6.91712206,22.9318876 23.9101936,7.02359189 44.8612786,7.02359189" id="Fill-5" fill="#FFFFFF"></path>
                                </g>
                            </g>
                            <g id="Group-21" transform="translate(141.902115, 21.693613)">
                                <ellipse id="Oval" fill="url(#linearGradient-7)" cx="58.0508654" cy="64.0668663" rx="58.0508654" ry="64.0668663"></ellipse>
                                <g id="Group-7" transform="translate(7.969231, 3.988024)">
                                    <path d="M44.8612786,0.792349916 C69.4854002,0.792349916 89.4548979,19.4900184 89.4548979,42.5540903 C89.4548979,65.6083057 69.4854002,84.3059742 44.8612786,84.3059742 C20.2266023,84.3059742 0.257104591,65.6083057 0.257104591,42.5540903 C0.257104591,19.4900184 20.2266023,0.792349916 44.8612786,0.792349916" id="Fill-3" fill="#2D363A"></path>
                                    <path d="M44.8612786,7.02359189 C65.8123637,7.02359189 82.8054352,22.9318876 82.8054352,42.5462051 C82.8054352,62.1703791 65.8123637,78.0688184 44.8612786,78.0688184 C23.9101936,78.0688184 6.91712206,62.1703791 6.91712206,42.5462051 C6.91712206,22.9318876 23.9101936,7.02359189 44.8612786,7.02359189" id="Fill-5" fill="#FFFFFF"></path>
                                </g>
                            </g>
                            <g id="Page-1" transform="translate(249.000000, 0.000000)" fill="#5BFBFC">
                                <path d="M37.0313831,18.2663126 C31.6339021,10.8518069 27.417834,3.09186107 25.9072666,0.205456318 C25.9072666,0.205456318 25.8475898,0.10969071 25.8000349,0 C25.7466522,0.0955213084 25.6932695,0.205456318 25.6932695,0.205456318 C24.1829353,3.09186107 19.9668671,10.8518069 14.5693861,18.2663126 C7.76880251,27.6078568 -1.20765085,37.766096 0.134609475,52.4690485 C1.46987644,67.0979781 11.6090937,76.7803208 25.6932695,76.8780408 L25.6932695,76.8802395 C25.7291688,76.8802395 25.7643688,76.8792623 25.8000349,76.8792623 C25.8364005,76.8792623 25.8716004,76.8802395 25.9072666,76.8802395 L25.9072666,76.8780408 C39.9912093,76.7803208 50.1308928,67.0979781 51.4661598,52.4690485 C52.8084201,37.766096 43.8319667,27.6078568 37.0313831,18.2663126" id="Fill-1"></path>
                            </g>
                        </g>
                        <g id="Group-10" transform="translate(303.133981, 129.235880) rotate(-29.000000) translate(-303.133981, -129.235880) translate(201.633981, 37.735880)">
                            <mask id="mask-9" fill="white">
                                <use xlink:href="#path-8"></use>
                            </mask>
                            <g id="Clip-9"></g>
                            <polygon id="Fill-8" fill="#5D02DD" mask="url(#mask-9)" points="318.043979 238.322298 -76.5612292 286.231608 -119.831275 -58.3232317 274.773934 -106.232541"></polygon>
                        </g>
                    </g>
                    <g id="Group-4" transform="translate(649.029297, 218.520495) scale(1, -1) rotate(89.000000) translate(-649.029297, -218.520495) translate(445.029297, 15.020495)">
                        <g id="Group">
                            <polyline id="Fill-282" fill="#343534" points="180.211817 228.68635 368.796659 40.1036786 366.748633 38.0571 178.164515 226.639771"></polyline>
                            <polyline id="Fill-283" fill="#343534" points="191.428921 239.904177 380.013763 51.321506 377.965737 49.2742037 189.382342 237.857598"></polyline>
                            <polyline id="Fill-284" fill="#343534" points="204.649182 249.119571 389.226262 64.5417673 387.178236 62.494465 202.602603 247.072268"></polyline>
                            <polyline id="Fill-285" fill="#343534" points="223.60464 252.599044 396.709155 79.4981468 394.661129 77.4508445 221.558061 250.552465"></polyline>
                            <polyline id="Fill-286" fill="#343534" points="248.766413 249.872926 398.243366 100.396697 396.19534 98.3493942 246.71911 247.826347"></polyline>
                            <polyline id="Fill-287" fill="#343534" points="268.761805 252.311017 400.682181 120.39426 398.634155 118.347681 266.713779 250.263715"></polyline>
                            <polyline id="Fill-288" fill="#343534" points="168.99399 217.469246 357.579555 28.8858512 355.531529 26.8392726 166.946687 215.421944"></polyline>
                            <polyline id="Fill-289" fill="#343534" points="159.778596 204.248985 344.357847 19.6704578 342.309821 17.6238791 157.732018 202.201682"></polyline>
                            <polyline id="Fill-290" fill="#343534" points="156.299123 185.293527 329.399296 12.1919062 327.35127 10.1446039 154.251821 183.246224"></polyline>
                            <polyline id="Fill-291" fill="#343534" points="159.024517 160.131754 308.499299 10.6548011 306.451273 8.60822249 156.977939 158.085175"></polyline>
                            <polyline id="Fill-292" fill="#343534" points="156.587149 140.134191 288.503907 8.21743307 286.455881 6.1708544 154.540571 138.086889"></polyline>
                            <polyline id="Fill-293" fill="#343534" points="172.503134 94.194 312.660483 234.347731 314.701272 232.301152 174.549713 92.1466977"></polyline>
                            <polyline id="Fill-294" fill="#343534" points="165.392214 109.227814 297.622327 241.458651 299.670353 239.411348 167.439516 107.180511"></polyline>
                            <polyline id="Fill-295" fill="#343534" points="159.628794 125.60768 281.245356 247.222795 283.293382 245.175492 161.675372 123.561101"></polyline>
                            <polyline id="Fill-296" fill="#343534" points="153.274847 141.399191 265.454568 253.576017 267.495357 251.529439 155.322149 139.351888"></polyline>
                            <polyline id="Fill-297" fill="#343534" points="183.575501 83.1216332 323.73285 223.276087 325.773639 221.228785 185.622079 81.0743308"></polyline>
                            <polyline id="Fill-298" fill="#343534" points="194.647144 72.0492663 334.805217 212.20372 336.846006 210.157142 196.694446 70.0026876"></polyline>
                            <polyline id="Fill-299" fill="#343534" points="205.719511 60.9768994 345.870347 201.131354 347.918373 199.084775 207.766813 58.9303207"></polyline>
                            <polyline id="Fill-300" fill="#343534" points="216.791878 49.9052562 356.942713 190.058987 358.990739 188.012408 218.838456 47.8579539"></polyline>
                            <polyline id="Fill-301" fill="#343534" points="227.864245 38.8328893 368.01508 178.987343 370.063106 176.940041 229.910823 36.7863107"></polyline>
                            <polyline id="Fill-302" fill="#343534" points="238.935888 27.7605225 379.087447 167.914977 381.135473 165.867674 240.98319 25.7139438"></polyline>
                            <polyline id="Fill-303" fill="#343534" points="253.969701 20.6503261 386.201262 152.881163 388.249288 150.833861 256.017728 18.6030237"></polyline>
                            <polyline id="Fill-304" fill="#343534" points="270.35391 14.8861821 391.961788 136.500573 394.009814 134.453994 272.394699 12.8388798"></polyline>
                            <polyline id="Fill-305" fill="#343534" points="286.144697 8.53295934 398.315734 120.709786 400.36376 118.662483 288.185486 6.48565699"></polyline>
                            <g id="Fill-306">
                                <use fill="black" fill-opacity="1" filter="url(#filter-12)" xlink:href="#path-11"></use>
                                <use fill="url(#linearGradient-10)" fill-rule="evenodd" xlink:href="#path-11"></use>
                            </g>
                            <path d="M285.030223,18.4336816 L275.101277,8.5119725 C260.917069,12.6977614 246.813189,19.9230235 233.003125,29.4951933 L240.683585,37.1756527 C255.228912,27.6483514 270.107857,21.060655 285.030223,18.4336816" id="Fill-311" fill="#A5CA3B"></path>
                            <path d="M285.030223,18.4336816 L287.331539,16.1316425 L277.40983,6.20920966 C276.563119,5.36467031 275.32562,5.0505914 274.182199,5.38855188 C259.578253,9.69809075 245.179834,17.0934187 231.147599,26.8190094 C230.354442,27.3690093 229.846415,28.2417724 229.759573,29.2042722 C229.673455,30.1660484 230.017205,31.115522 230.700363,31.7979561 L238.380822,39.4784156 C239.472138,40.5697312 241.176414,40.7455864 242.467466,39.9003234 C256.741412,30.5503247 271.229567,24.1674308 285.594697,21.6410496 C286.788776,21.4304575 287.765749,20.5728919 288.134828,19.4135499 C288.49667,18.2549317 288.185486,16.9906555 287.331539,16.1316425 L285.030223,18.4336816 L284.46575,15.2270374 C268.986147,17.9531554 253.723649,24.7471018 238.89898,34.4517057 L240.683585,37.1756527 L242.986348,34.8728899 L235.305888,27.1924304 L233.003125,29.4951933 L234.858652,32.1721008 C248.446544,22.7519047 262.248648,15.697432 276.027593,11.6353931 L275.101277,8.5119725 L272.799962,10.8147353 L282.721671,20.7371682 L285.030223,18.4336816 L284.46575,15.2270374 L285.030223,18.4336816" id="Fill-312" fill="#1A1919"></path>
                            <path d="M388.415735,121.824259 C385.788762,136.744455 379.203237,151.619782 369.672317,166.168003 L377.357842,173.847739 C386.924946,160.037675 394.15455,145.93669 398.337445,131.746692 L388.415735,121.824259" id="Fill-313" fill="#A5CA3B"></path>
                            <path d="M388.415735,121.824259 L385.209815,121.259786 C382.684157,135.623468 376.301263,150.108729 366.951265,164.383398 C366.104554,165.675174 366.278238,167.378727 367.371001,168.470766 L375.056527,176.150502 C375.73679,176.83366 376.684816,177.178133 377.647316,177.091291 C378.609816,177.005173 379.485473,176.497146 380.035473,175.703265 C389.754551,161.67103 397.150603,147.273335 401.46376,132.667942 C401.803891,131.521626 401.48547,130.288469 400.63876,129.443929 L390.717051,119.521497 C389.863104,118.662483 388.596656,118.352747 387.438762,118.718931 C386.280867,119.084391 385.419683,120.062812 385.209815,121.259786 L388.415735,121.824259 L386.11442,124.127022 L396.036129,134.049455 L398.337445,131.746692 L395.218366,130.824719 C391.151261,144.600769 384.102578,158.40432 374.680211,171.992937 L377.357842,173.847739 L379.659158,171.544976 L371.980869,163.86524 L369.672317,166.168003 L372.400606,167.951885 C382.10521,153.130834 388.900604,137.864718 391.621656,122.388733 L388.415735,121.824259 L386.11442,124.127022 L388.415735,121.824259" id="Fill-314" fill="#1A1919"></path>
                            <path d="M250.348386,246.625031 L260.728911,257.002662 C276.121672,254.162925 291.803907,248.474044 306.907194,240.098848 L299.040748,232.231678 C282.989434,240.443322 266.351937,245.291282 250.348386,246.625031" id="Fill-315" fill="#FFFFFE"></path>
                            <path d="M250.348386,246.625031 L248.045623,248.927794 L258.420359,259.305424 C259.180227,260.060227 260.265753,260.398911 261.315095,260.205687 C277.091409,257.295754 293.092064,251.481676 308.484825,242.946545 C309.382194,242.450822 309.990088,241.564308 310.134825,240.551874 C310.272325,239.538717 309.932194,238.519046 309.20851,237.796085 L301.342063,229.928915 C300.343379,228.92806 298.816406,228.687797 297.557195,229.3326 C281.860487,237.365493 265.613779,242.085361 250.077728,243.380032 C248.815623,243.484966 247.726479,244.315755 247.290821,245.505492 C246.855163,246.694505 247.150426,248.032597 248.045623,248.927794 L250.348386,246.625031 L250.619044,249.870755 C267.082858,248.496479 284.125618,243.520427 300.5243,235.130757 L299.040748,232.231678 L296.739432,234.534441 L304.605879,242.401611 L306.907194,240.098848 L305.329563,237.250427 C290.508512,245.466413 275.159172,251.030097 260.13549,253.800359 L260.728911,257.002662 L263.030227,254.699899 L252.652596,244.322269 L250.348386,246.625031 L250.619044,249.870755 L250.348386,246.625031" id="Fill-316" fill="#1A1919"></path>
                            <path d="M174.619186,107.81084 L166.75274,99.944394 C158.377544,115.049852 152.687939,130.727021 149.848203,146.124848 L160.225833,156.502478 C161.560306,140.500375 166.408266,123.860706 174.619186,107.81084" id="Fill-317" fill="#FFFFFE"></path>
                            <path d="M174.619186,107.81084 L176.921949,105.508077 L169.055503,97.6416311 C168.331819,96.9186707 167.312148,96.5770918 166.299714,96.7196576 C165.286556,96.8614997 164.400767,97.4708417 163.904319,98.3653153 C155.369913,113.759524 149.555111,129.760903 146.645901,145.534322 C146.451953,146.583664 146.791361,147.673532 147.54544,148.427611 L157.92307,158.805241 C158.818991,159.701162 160.156359,159.996425 161.346096,159.560767 C162.535109,159.125109 163.365898,158.035241 163.471556,156.773136 C164.765503,141.236362 169.485371,124.993996 177.518265,109.294393 C178.163791,108.033011 177.923528,106.509656 176.921949,105.508077 L174.619186,107.81084 L171.720108,106.328012 C163.331161,122.727417 158.354386,139.765112 156.980833,156.23182 L160.225833,156.502478 L162.528596,154.199715 L152.150966,143.822085 L149.848203,146.124848 L153.051229,146.715374 C155.820768,131.692416 161.385175,116.340181 169.600437,101.523473 L166.75274,99.944394 L164.449977,102.247157 L172.316423,110.113603 L174.619186,107.81084 L171.720108,106.328012 L174.619186,107.81084" id="Fill-318" fill="#1A1919"></path>
                            <path d="M70.0439376,316.453311 C73.062424,313.523114 75.9463052,310.715944 78.6145285,308.112852 C75.9470289,310.71522 73.0609767,313.525285 70.0446613,316.453311 L70.0439376,316.453311 M110.267024,316.452588 C112.954787,313.715614 114.565708,312.081535 114.651826,311.99397 C114.564984,312.082259 112.950445,313.719956 110.267024,316.452588 M114.65255,311.993246 C114.653274,311.993246 114.653274,311.992522 114.653997,311.992522 C114.653274,311.992522 114.653274,311.993246 114.65255,311.993246 M114.653997,311.991799 C114.654721,311.991799 114.654721,311.991075 114.654721,311.991075 C114.654721,311.991075 114.654721,311.991799 114.653997,311.991799 M114.655445,311.991075 C114.655445,311.991075 114.655445,311.991075 114.655445,311.990351 C114.655445,311.991075 114.655445,311.991075 114.655445,311.991075 M114.655445,311.990351 L110.778669,308.112852 L114.655445,311.990351" id="Fill-325" fill="#1A1919"></path>
                            <path d="M91.6719609,335.492716 L91.6719609,335.492716 C94.3068948,332.780348 96.8325523,330.186665 99.1816309,327.778968 C96.8325523,330.186665 94.3068948,332.780348 91.6719609,335.492716 M50.2851904,335.492716 L50.2851904,335.492716 C53.1640058,332.743441 56.0826238,329.942783 58.9795313,327.152257 C56.0819001,329.94423 53.1647294,332.742717 50.2851904,335.492716" id="Fill-328" fill="#1A1919"></path>
                            <g id="Group-2">
                                <g id="Group-310" filter="url(#filter-13)" transform="translate(86.118409, 0.000000)" fill="#1A1919">
                                    <path d="M79.9345283,262.211016 L78.6398575,259.222924 C64.322491,265.427792 50.0840062,274.48687 39.0413104,282.276605 C38.9088762,282.363448 38.8792051,282.363448 38.8690735,282.362724 C38.8669025,282.362724 38.8647314,282.362724 38.8632841,282.364171 L38.8032183,282.347526 C38.7460472,282.325816 38.652692,282.252 38.6042052,282.178184 C38.5528236,282.102198 38.5513762,282.058777 38.5513762,282.055158 C38.5578894,282.047921 38.5303894,282.043579 38.6367709,281.878579 C46.3338751,270.741804 55.3068344,256.40707 61.5095309,242.092598 C65.1134778,233.770231 67.9068984,225.3176 70.0801218,217.14793 C70.1061744,217.05168 70.1336744,217.003917 70.1597271,216.965562 C70.1980823,216.911286 70.2436744,216.869312 70.3254507,216.827338 C70.405056,216.786812 70.517227,216.759312 70.6207139,216.760036 C70.7314375,216.760036 70.8190033,216.787536 70.8754507,216.819378 C70.9326217,216.855562 70.9753191,216.880891 71.055648,217.015496 C74.8296606,223.762403 79.5097258,230.016481 85.1124881,235.619967 C90.7159742,241.223453 96.970776,245.902795 103.716959,249.677531 C103.851564,249.757136 103.876893,249.799834 103.913078,249.857005 C103.94492,249.913452 103.97242,250.001018 103.97242,250.111741 C103.973867,250.251413 103.921762,250.399768 103.863143,250.477926 L103.766893,250.573452 C103.728538,250.599505 103.680775,250.626281 103.584525,250.653057 C95.4148551,252.825557 86.9622247,255.618978 78.6398575,259.222924 L81.2284755,265.199831 C89.2005797,261.747135 97.3507101,259.049964 105.258406,256.946938 C106.073998,256.73128 106.833143,256.376675 107.491696,255.916412 C108.483866,255.225293 109.241564,254.306938 109.738011,253.305359 C110.235906,252.30161 110.484853,251.212465 110.485577,250.111741 C110.485577,248.951676 110.204064,247.766281 109.601235,246.684374 C109.003472,245.603913 108.067748,244.643584 106.897551,243.993716 C100.655052,240.500493 94.8909078,236.186612 89.7187375,231.014442 C84.5465672,225.841547 80.2319625,220.078127 76.739463,213.835628 C76.088871,212.665431 75.1285422,211.729707 74.0480818,211.131221 C72.9661741,210.528392 71.7807795,210.246879 70.6207139,210.246879 C69.1552535,210.24905 67.7020958,210.68905 66.4588065,211.57701 C65.8393329,212.021352 65.2763067,212.58076 64.8160436,213.24076 C64.3565042,213.900036 64.0011753,214.659181 63.7855174,215.474049 C61.6824914,223.381745 58.9860444,231.531876 55.5326238,239.50398 C49.6150589,253.180162 40.8338759,267.255094 33.2800612,278.173317 C32.4622981,279.344237 32.0317061,280.732264 32.0382192,282.055158 C32.0382192,283.006079 32.2459166,283.914303 32.6012455,284.724105 C33.136048,285.939894 33.9871005,286.947986 35.0552583,287.682526 C36.1205213,288.41417 37.436179,288.876605 38.8632841,288.877328 C40.2057181,288.884565 41.6154547,288.440947 42.7972309,287.598578 C53.6134136,279.959369 67.5797932,271.105818 81.2284755,265.199831 L79.9345283,262.211016 M275.694698,45.0399279 L273.393383,47.3426908 C283.155882,57.1117026 290.045354,67.0160433 294.503248,76.9630814 C298.953906,86.9122905 300.987458,96.9121576 300.987458,106.97788 C300.987458,122.493667 296.117064,138.223665 287.490749,153.829189 C278.871672,169.427476 266.496673,184.859316 251.690097,199.662275 C237.780888,213.572207 222.192732,224.248719 206.192077,231.529705 C190.198658,238.812861 173.807213,242.696874 158.31386,243.060887 L158.391294,246.316742 L158.346425,243.060164 C157.821031,243.0674 157.24932,243.077532 156.602347,243.092729 L156.680504,246.348584 L156.656623,243.092006 C156.406228,243.094177 156.15511,243.0949 155.904715,243.0949 C144.922085,243.0949 134.433731,241.308124 124.876759,237.70273 C115.319063,234.095888 106.689854,228.677666 99.3712362,221.361219 C92.0547898,214.042602 86.6365669,205.413392 83.0290016,195.855696 C79.4228837,186.298724 77.6361076,175.81037 77.6361076,164.82774 C77.6361076,164.615701 77.6368313,164.404385 77.6382787,164.193069 L74.3817002,164.171359 L77.637555,164.251688 C77.6556471,163.517148 77.6665023,162.878135 77.6737392,162.297017 L74.4178844,162.255043 L77.6730155,162.333925 C78.0500549,146.851427 81.939857,130.473008 89.2222902,114.494063 C96.503276,98.5151179 107.172551,82.9378174 121.070181,69.0409114 C135.873139,54.2350582 151.304979,41.8636784 166.903266,33.2409822 C182.505896,24.6124966 198.238788,19.7428262 213.754575,19.7442736 C223.821021,19.7471683 233.822336,21.7807207 243.772992,26.2328253 C253.716412,30.6863773 263.623648,37.5744027 273.393383,47.3426908 L277.996014,42.7371651 C267.755884,32.4963113 257.197333,25.1082202 246.428913,20.288484 C235.66773,15.4665768 224.703916,13.2289455 213.754575,13.2311166 C196.856552,13.2325639 180.052607,18.5255895 163.751622,27.5412462 C147.441229,36.5626923 131.586034,49.316901 116.464655,64.4353858 C102.025709,78.8750548 90.9106452,95.0848552 83.296041,111.793274 C75.6821605,128.50314 71.5651216,145.715243 71.1620296,162.175438 L71.1613059,162.212346 C71.154069,162.776096 71.1439375,163.386161 71.126569,164.090306 L71.1258454,164.148925 C71.1236743,164.376161 71.1229506,164.602674 71.1229506,164.82774 C71.1229506,176.515239 73.0247925,187.78879 76.9348577,198.154117 C80.8434756,208.518721 86.7697248,217.972206 94.7664342,225.966745 C102.760249,233.962731 112.214458,239.88898 122.578338,243.796874 C132.944389,247.706939 144.21794,249.608057 155.904715,249.608057 C156.171031,249.608057 156.437347,249.607334 156.704386,249.605163 L156.759386,249.604439 C157.379583,249.589242 157.926689,249.579834 158.434715,249.573321 L158.468004,249.572597 C174.943397,249.181807 192.167079,245.071282 208.891418,237.457401 C225.615758,229.842797 241.840756,218.720496 256.299964,204.268524 C271.417725,189.146421 284.169039,173.291226 293.19338,156.980833 C302.203247,140.676954 307.500615,123.87518 307.500615,106.97788 C307.500615,96.0299866 305.264431,85.064725 300.444695,74.3013712 C295.624959,63.5351227 288.236144,52.9772953 277.996014,42.7371651 L275.694698,45.0399279 M261.300622,209.273523 L263.601937,211.576286 C280.34075,194.837473 294.452591,177.291028 304.424958,159.256096 C314.397325,141.227678 320.237455,122.668799 320.237455,104.019459 C320.244692,91.9353819 317.776929,79.8375547 312.450614,67.9546616 C307.131536,56.0688738 298.968379,44.405257 287.64996,33.0846664 C276.324304,21.7619049 264.665753,13.6023665 252.775623,8.28111727 C240.89273,2.95769696 228.799968,0.489210458 216.714444,0.492105195 C198.065104,0.493552563 179.502607,6.33585438 161.476359,16.3053267 C143.441427,26.2798648 125.894982,40.3917049 109.156893,57.1276236 C92.7574871,73.5270292 80.2363046,91.9889346 71.8039374,110.989261 C63.3737412,129.990311 59.0280181,149.5334 59.0265707,168.110371 C59.0265707,169.236424 59.0424918,170.359582 59.0743339,171.479121 L62.3301887,171.385042 L59.0801234,171.172279 C58.137163,185.686487 54.9659792,211.457602 44.8177569,234.864441 C37.1908501,252.478189 27.4717725,267.150884 19.6400631,277.418514 C15.724932,282.553053 12.2830904,286.586868 9.81532758,289.34121 C8.58144617,290.718381 7.59144631,291.774959 6.90756483,292.489959 C6.56598593,292.847459 6.30039386,293.118841 6.12019652,293.302657 C6.029736,293.393841 5.96026233,293.463314 5.91322286,293.510354 L5.85967024,293.563906 L5.84664392,293.577656 L5.84374919,293.579828 L6.4487491,294.194235 L5.84519655,293.57838 L5.84374919,293.579828 L6.4487491,294.194235 L5.84519655,293.57838 L5.85026234,293.573314 L1.62177609,297.700485 C0.998684071,298.30838 0.644802542,299.14134 0.639736753,300.011208 C0.634670964,300.881077 0.978420916,301.719103 1.59355241,302.333511 L14.2218401,314.961798 L18.3974974,319.131666 C19.0126289,319.746798 19.8470367,320.0891 20.716905,320.084034 C21.5867733,320.078969 22.416839,319.727258 23.026181,319.105613 L27.1540752,314.88943 L27.1569699,314.885088 L26.0063122,313.762654 L27.1533515,314.88943 L27.1569699,314.885088 L26.0063122,313.762654 L27.1533515,314.88943 C27.172891,314.869167 27.5723646,314.465351 28.3011145,313.769891 C33.4103243,308.879233 55.1599265,289.20371 85.868738,275.914698 C109.277024,265.765029 135.051758,262.594569 149.565966,261.653056 L149.352479,258.40299 L149.259124,261.658121 C150.376492,261.690687 151.498203,261.706608 152.622808,261.706608 C171.20195,261.704437 190.741421,257.358714 209.745366,248.928518 C228.742073,240.496874 247.203255,227.974968 263.601937,211.576286 L258.999306,206.970761 C243.157861,222.81293 225.347995,234.879638 207.103919,242.975492 C188.859842,251.072794 170.181555,255.194899 152.622808,255.193451 C151.559716,255.193451 150.500242,255.178254 149.445834,255.147859 C149.309782,255.143517 149.275045,255.144241 149.139716,255.153649 C134.191297,256.141477 107.823143,259.322069 83.28012,269.937791 C65.0280831,277.84404 49.9443352,287.846802 39.3640735,295.913709 C34.0739426,299.948248 29.9105879,303.499366 27.0440752,306.067721 C25.610457,307.35226 24.5017729,308.390747 23.7390099,309.120944 C23.3569046,309.485681 23.0616415,309.774431 22.8553916,309.977786 C22.7526284,310.079102 22.6715758,310.15943 22.6129574,310.218773 L22.4957206,310.336009 L22.499339,310.333115 L20.6727603,312.198772 L18.8237474,310.353378 L18.8259184,310.354825 L8.5300646,300.058971 L10.4000643,298.234564 L10.4051301,298.228774 C10.442038,298.19259 10.5527617,298.08259 10.758288,297.874893 C12.2809193,296.329827 18.5784185,289.773249 26.3536805,279.331935 C34.1274952,268.889897 43.3826913,254.563846 50.794664,237.452335 C61.4089388,212.912207 64.5909778,186.547671 65.5795303,171.598529 C65.5882146,171.462476 65.5889382,171.427739 65.5853198,171.291687 C65.5549251,170.235832 65.5397277,169.174911 65.5397277,168.110371 C65.5382803,150.551624 69.6596614,131.876232 77.7576865,113.630708 C85.8535407,95.3859078 97.9195258,77.5753181 113.761695,61.7331493 C130.182811,45.3098621 147.305177,31.5808509 164.628003,22.0050627 C181.955896,12.4227614 199.447341,7.00309113 216.714444,7.00526218 C227.917074,7.00815692 239.047335,9.2725645 250.119702,14.2254585 C261.184832,19.1805236 272.192067,26.8399963 283.040092,37.6894684 C293.895354,48.5396643 301.551932,59.550518 306.509168,70.6163717 C311.459167,81.6858439 313.724298,92.8182765 313.724298,104.019459 C313.731535,121.286562 308.311141,138.775112 298.729564,156.104452 C289.155223,173.428002 275.419698,190.550368 258.999306,206.970761 L261.300622,209.273523" id="Fill-308"></path>
                                </g>
                                <g id="Fill-322">
                                    <use fill="black" fill-opacity="1" filter="url(#filter-15)" xlink:href="#path-14"></use>
                                    <use fill="#1A1919" fill-rule="evenodd" xlink:href="#path-14"></use>
                                </g>
                                <path d="M70.0446613,316.453311 C73.0609767,313.525285 75.9470289,310.71522 78.6145285,308.112852 L110.778669,308.112852 L114.655445,311.990351 C114.655445,311.991075 114.655445,311.991075 114.655445,311.991075 L114.654721,311.991075 C114.654721,311.991075 114.654721,311.991799 114.653997,311.991799 L114.653997,311.992522 C114.653274,311.992522 114.653274,311.993246 114.65255,311.993246 C114.65255,311.99397 114.65255,311.99397 114.651826,311.99397 C114.565708,312.081535 112.954787,313.715614 110.267024,316.452588 L70.0439376,316.453311" id="Fill-323" stroke="#000000" fill="url(#linearGradient-10)"></path>
                                <path d="M91.6719609,335.492716 L50.2851904,335.492716 C53.1647294,332.742717 56.0819001,329.94423 58.9802549,327.152257 L99.793144,327.152257 C99.5905124,327.359954 99.3871572,327.569099 99.1816309,327.778968 C96.8325523,330.186665 94.3068948,332.780348 91.6719609,335.492716" id="Fill-326" stroke="#000000" fill="url(#linearGradient-10)"></path>
                                <polyline id="Fill-338" points="84.3945935 293.684762 113.165379 322.456995 125.119917 310.499562 96.349855 281.731671 84.3945935 293.684762"></polyline>
                            </g>
                        </g>
                        <g id="Group-3" transform="translate(0.000000, 285.855223)">
                            <g id="Fill-322">
                                <use fill="black" fill-opacity="1" filter="url(#filter-17)" xlink:href="#path-16"></use>
                                <use fill="#F81CF3" fill-rule="evenodd" xlink:href="#path-16"></use>
                            </g>
                            <rect id="Rectangle" fill="#F81CF3" transform="translate(60.784021, 58.129819) rotate(-43.000000) translate(-60.784021, -58.129819) " x="-0.234491556" y="41.4850841" width="122.037026" height="33.289469"></rect>
                            <rect id="Rectangle" fill="#F81CF3" transform="translate(59.830528, 61.313289) rotate(-49.000000) translate(-59.830528, -61.313289) " x="-1.1879849" y="44.6685548" width="122.037026" height="33.289469"></rect>
                            <rect id="Rectangle" fill="#F81CF3" transform="translate(59.142237, 60.554212) rotate(-41.000000) translate(-59.142237, -60.554212) " x="-1.87627597" y="43.9094777" width="122.037026" height="33.289469"></rect>
                        </g>
                    </g>
                </g>
                <path d="M194.748719,357.945552 C170.775733,357.945552 138.243357,359.635622 111,356.99274 C117.321136,345.183486 122.63714,336.389028 126.948011,330.609366 C131.258881,324.829705 137.329432,317.224537 145.159664,307.793862 C315.072948,324.220737 373.988218,286.98373 375.054009,286.528061 C375.540641,286.320005 392.794757,298.728455 403.59171,309.873788 C408.559267,315.001631 409.475448,315.80495 416.625511,323.336097 C423.775573,330.867244 327.768133,357.945552 194.748719,357.945552 Z" id="Stroke-7" stroke="#D6D4D4" stroke-width="0.5" fill="#F2FF44" transform="translate(264.000000, 322.501659) scale(-1, 1) translate(-264.000000, -322.501659) "></path>
            </g>
        </g>
    </g>
</svg>